<?xml version="1.0" encoding="UTF-8"?>
<svg xmlns="http://www.w3.org/2000/svg" xmlns:xlink="http://www.w3.org/1999/xlink" width="396pt" height="252pt" viewBox="0 0 396 252">
<defs>
<g>
<g id="glyph-0-0">
<path d="M 0.28125 0 L 0.28125 -6.3125 L 5.296875 -6.3125 L 5.296875 0 Z M 4.5 -0.796875 L 4.5 -5.515625 L 1.078125 -5.515625 L 1.078125 -0.796875 Z M 4.5 -0.796875 "/>
</g>
<g id="glyph-0-1">
<path d="M 2.375 -6.15625 C 3.175781 -6.15625 3.753906 -5.828125 4.109375 -5.171875 C 4.378906 -4.660156 4.515625 -3.960938 4.515625 -3.078125 C 4.515625 -2.242188 4.390625 -1.554688 4.140625 -1.015625 C 3.785156 -0.222656 3.195312 0.171875 2.375 0.171875 C 1.632812 0.171875 1.082031 -0.148438 0.71875 -0.796875 C 0.425781 -1.328125 0.28125 -2.046875 0.28125 -2.953125 C 0.28125 -3.648438 0.367188 -4.25 0.546875 -4.75 C 0.878906 -5.6875 1.488281 -6.15625 2.375 -6.15625 Z M 2.375 -0.53125 C 2.769531 -0.53125 3.085938 -0.707031 3.328125 -1.0625 C 3.566406 -1.425781 3.6875 -2.085938 3.6875 -3.046875 C 3.6875 -3.753906 3.597656 -4.332031 3.421875 -4.78125 C 3.253906 -5.226562 2.921875 -5.453125 2.421875 -5.453125 C 1.972656 -5.453125 1.640625 -5.238281 1.421875 -4.8125 C 1.210938 -4.382812 1.109375 -3.753906 1.109375 -2.921875 C 1.109375 -2.296875 1.175781 -1.789062 1.3125 -1.40625 C 1.519531 -0.820312 1.875 -0.53125 2.375 -0.53125 Z M 2.375 -0.53125 "/>
</g>
<g id="glyph-0-2">
<path d="M 0.75 -0.9375 L 1.65625 -0.9375 L 1.65625 0 L 0.75 0 Z M 0.75 -0.9375 "/>
</g>
<g id="glyph-0-3">
<path d="M 0.84375 -4.359375 L 0.84375 -4.953125 C 1.394531 -5.003906 1.78125 -5.09375 2 -5.21875 C 2.226562 -5.34375 2.394531 -5.644531 2.5 -6.125 L 3.109375 -6.125 L 3.109375 0 L 2.296875 0 L 2.296875 -4.359375 Z M 0.84375 -4.359375 "/>
</g>
<g id="glyph-0-4">
<path d="M 0.28125 0 C 0.300781 -0.53125 0.40625 -0.988281 0.59375 -1.375 C 0.789062 -1.769531 1.164062 -2.128906 1.71875 -2.453125 L 2.546875 -2.921875 C 2.910156 -3.140625 3.164062 -3.328125 3.3125 -3.484375 C 3.550781 -3.710938 3.671875 -3.984375 3.671875 -4.296875 C 3.671875 -4.648438 3.5625 -4.929688 3.34375 -5.140625 C 3.132812 -5.359375 2.847656 -5.46875 2.484375 -5.46875 C 1.960938 -5.46875 1.597656 -5.265625 1.390625 -4.859375 C 1.285156 -4.648438 1.226562 -4.351562 1.21875 -3.96875 L 0.421875 -3.96875 C 0.429688 -4.5 0.53125 -4.9375 0.71875 -5.28125 C 1.050781 -5.875 1.644531 -6.171875 2.5 -6.171875 C 3.195312 -6.171875 3.707031 -5.976562 4.03125 -5.59375 C 4.363281 -5.21875 4.53125 -4.796875 4.53125 -4.328125 C 4.53125 -3.835938 4.351562 -3.414062 4 -3.0625 C 3.800781 -2.863281 3.441406 -2.617188 2.921875 -2.328125 L 2.34375 -2 C 2.0625 -1.84375 1.835938 -1.695312 1.671875 -1.5625 C 1.390625 -1.3125 1.210938 -1.035156 1.140625 -0.734375 L 4.5 -0.734375 L 4.5 0 Z M 0.28125 0 "/>
</g>
<g id="glyph-0-5">
<path d="M 2.28125 0.171875 C 1.550781 0.171875 1.019531 -0.0234375 0.6875 -0.421875 C 0.363281 -0.828125 0.203125 -1.316406 0.203125 -1.890625 L 1.015625 -1.890625 C 1.046875 -1.492188 1.117188 -1.203125 1.234375 -1.015625 C 1.441406 -0.691406 1.804688 -0.53125 2.328125 -0.53125 C 2.734375 -0.53125 3.054688 -0.640625 3.296875 -0.859375 C 3.546875 -1.078125 3.671875 -1.359375 3.671875 -1.703125 C 3.671875 -2.128906 3.539062 -2.425781 3.28125 -2.59375 C 3.03125 -2.757812 2.671875 -2.84375 2.203125 -2.84375 C 2.148438 -2.84375 2.097656 -2.84375 2.046875 -2.84375 C 1.992188 -2.84375 1.941406 -2.84375 1.890625 -2.84375 L 1.890625 -3.515625 C 1.972656 -3.515625 2.039062 -3.507812 2.09375 -3.5 C 2.144531 -3.5 2.203125 -3.5 2.265625 -3.5 C 2.554688 -3.5 2.796875 -3.546875 2.984375 -3.640625 C 3.304688 -3.796875 3.46875 -4.082031 3.46875 -4.5 C 3.46875 -4.800781 3.359375 -5.035156 3.140625 -5.203125 C 2.921875 -5.367188 2.671875 -5.453125 2.390625 -5.453125 C 1.867188 -5.453125 1.507812 -5.28125 1.3125 -4.9375 C 1.207031 -4.75 1.144531 -4.476562 1.125 -4.125 L 0.359375 -4.125 C 0.359375 -4.582031 0.453125 -4.972656 0.640625 -5.296875 C 0.953125 -5.867188 1.503906 -6.15625 2.296875 -6.15625 C 2.929688 -6.15625 3.421875 -6.015625 3.765625 -5.734375 C 4.109375 -5.460938 4.28125 -5.0625 4.28125 -4.53125 C 4.28125 -4.144531 4.175781 -3.835938 3.96875 -3.609375 C 3.84375 -3.460938 3.679688 -3.347656 3.484375 -3.265625 C 3.804688 -3.171875 4.054688 -3 4.234375 -2.75 C 4.421875 -2.5 4.515625 -2.191406 4.515625 -1.828125 C 4.515625 -1.234375 4.316406 -0.75 3.921875 -0.375 C 3.535156 -0.0078125 2.988281 0.171875 2.28125 0.171875 Z M 2.28125 0.171875 "/>
</g>
<g id="glyph-0-6">
<path d="M 2.90625 -2.171875 L 2.90625 -4.96875 L 0.9375 -2.171875 Z M 2.921875 0 L 2.921875 -1.5 L 0.21875 -1.5 L 0.21875 -2.265625 L 3.046875 -6.171875 L 3.6875 -6.171875 L 3.6875 -2.171875 L 4.59375 -2.171875 L 4.59375 -1.5 L 3.6875 -1.5 L 3.6875 0 Z M 2.921875 0 "/>
</g>
<g id="glyph-0-7">
<path d="M 1.09375 -1.5625 C 1.132812 -1.125 1.335938 -0.820312 1.703125 -0.65625 C 1.878906 -0.570312 2.09375 -0.53125 2.34375 -0.53125 C 2.800781 -0.53125 3.140625 -0.675781 3.359375 -0.96875 C 3.578125 -1.257812 3.6875 -1.582031 3.6875 -1.9375 C 3.6875 -2.363281 3.554688 -2.691406 3.296875 -2.921875 C 3.035156 -3.160156 2.71875 -3.28125 2.34375 -3.28125 C 2.082031 -3.28125 1.851562 -3.226562 1.65625 -3.125 C 1.46875 -3.019531 1.304688 -2.878906 1.171875 -2.703125 L 0.5 -2.734375 L 0.96875 -6.046875 L 4.171875 -6.046875 L 4.171875 -5.296875 L 1.5625 -5.296875 L 1.296875 -3.59375 C 1.429688 -3.695312 1.566406 -3.773438 1.703125 -3.828125 C 1.929688 -3.929688 2.195312 -3.984375 2.5 -3.984375 C 3.0625 -3.984375 3.535156 -3.800781 3.921875 -3.4375 C 4.316406 -3.070312 4.515625 -2.609375 4.515625 -2.046875 C 4.515625 -1.460938 4.332031 -0.945312 3.96875 -0.5 C 3.613281 -0.0625 3.046875 0.15625 2.265625 0.15625 C 1.753906 0.15625 1.304688 0.0117188 0.921875 -0.265625 C 0.546875 -0.546875 0.332031 -0.976562 0.28125 -1.5625 Z M 1.09375 -1.5625 "/>
</g>
<g id="glyph-0-8">
<path d="M 3.046875 -3.640625 C 3.398438 -3.640625 3.679688 -3.691406 3.890625 -3.796875 C 4.203125 -3.953125 4.359375 -4.234375 4.359375 -4.640625 C 4.359375 -5.054688 4.191406 -5.335938 3.859375 -5.484375 C 3.660156 -5.554688 3.378906 -5.59375 3.015625 -5.59375 L 1.484375 -5.59375 L 1.484375 -3.640625 Z M 3.328125 -0.734375 C 3.847656 -0.734375 4.222656 -0.882812 4.453125 -1.1875 C 4.585938 -1.375 4.65625 -1.601562 4.65625 -1.875 C 4.65625 -2.332031 4.453125 -2.644531 4.046875 -2.8125 C 3.828125 -2.90625 3.539062 -2.953125 3.1875 -2.953125 L 1.484375 -2.953125 L 1.484375 -0.734375 Z M 0.65625 -6.3125 L 3.359375 -6.3125 C 4.097656 -6.3125 4.625 -6.085938 4.9375 -5.640625 C 5.113281 -5.378906 5.203125 -5.082031 5.203125 -4.75 C 5.203125 -4.351562 5.09375 -4.023438 4.875 -3.765625 C 4.75 -3.628906 4.578125 -3.503906 4.359375 -3.390625 C 4.679688 -3.273438 4.925781 -3.140625 5.09375 -2.984375 C 5.375 -2.703125 5.515625 -2.320312 5.515625 -1.84375 C 5.515625 -1.4375 5.390625 -1.066406 5.140625 -0.734375 C 4.753906 -0.242188 4.144531 0 3.3125 0 L 0.65625 0 Z M 0.65625 -6.3125 "/>
</g>
<g id="glyph-0-9">
<path d="M 1.34375 -4.59375 L 1.34375 -1.546875 C 1.34375 -1.304688 1.378906 -1.113281 1.453125 -0.96875 C 1.585938 -0.695312 1.84375 -0.5625 2.21875 -0.5625 C 2.757812 -0.5625 3.125 -0.800781 3.3125 -1.28125 C 3.425781 -1.539062 3.484375 -1.894531 3.484375 -2.34375 L 3.484375 -4.59375 L 4.25 -4.59375 L 4.25 0 L 3.515625 0 L 3.53125 -0.671875 C 3.425781 -0.503906 3.300781 -0.359375 3.15625 -0.234375 C 2.863281 0.00390625 2.503906 0.125 2.078125 0.125 C 1.421875 0.125 0.976562 -0.09375 0.75 -0.53125 C 0.613281 -0.769531 0.546875 -1.082031 0.546875 -1.46875 L 0.546875 -4.59375 Z M 2.40625 -4.71875 Z M 2.40625 -4.71875 "/>
</g>
<g id="glyph-0-10">
<path d="M 0.59375 -6.3125 L 1.359375 -6.3125 L 1.359375 0 L 0.59375 0 Z M 0.59375 -6.3125 "/>
</g>
<g id="glyph-0-11">
<path d="M 2.1875 -4.6875 C 2.550781 -4.6875 2.867188 -4.597656 3.140625 -4.421875 C 3.285156 -4.316406 3.429688 -4.171875 3.578125 -3.984375 L 3.578125 -4.5625 L 4.296875 -4.5625 L 4.296875 -0.375 C 4.296875 0.207031 4.207031 0.671875 4.03125 1.015625 C 3.71875 1.640625 3.113281 1.953125 2.21875 1.953125 C 1.726562 1.953125 1.3125 1.835938 0.96875 1.609375 C 0.632812 1.390625 0.445312 1.046875 0.40625 0.578125 L 1.1875 0.578125 C 1.226562 0.773438 1.300781 0.929688 1.40625 1.046875 C 1.582031 1.222656 1.859375 1.3125 2.234375 1.3125 C 2.828125 1.3125 3.21875 1.097656 3.40625 0.671875 C 3.507812 0.429688 3.554688 -0.00390625 3.546875 -0.640625 C 3.390625 -0.398438 3.203125 -0.222656 2.984375 -0.109375 C 2.773438 0.00390625 2.488281 0.0625 2.125 0.0625 C 1.632812 0.0625 1.203125 -0.113281 0.828125 -0.46875 C 0.453125 -0.820312 0.265625 -1.410156 0.265625 -2.234375 C 0.265625 -3.003906 0.453125 -3.601562 0.828125 -4.03125 C 1.203125 -4.46875 1.65625 -4.6875 2.1875 -4.6875 Z M 3.578125 -2.3125 C 3.578125 -2.882812 3.457031 -3.304688 3.21875 -3.578125 C 2.988281 -3.859375 2.691406 -4 2.328125 -4 C 1.785156 -4 1.414062 -3.742188 1.21875 -3.234375 C 1.113281 -2.960938 1.0625 -2.609375 1.0625 -2.171875 C 1.0625 -1.648438 1.164062 -1.253906 1.375 -0.984375 C 1.582031 -0.710938 1.863281 -0.578125 2.21875 -0.578125 C 2.769531 -0.578125 3.160156 -0.828125 3.390625 -1.328125 C 3.515625 -1.609375 3.578125 -1.9375 3.578125 -2.3125 Z M 2.28125 -4.71875 Z M 2.28125 -4.71875 "/>
</g>
<g id="glyph-0-12">
<path d="M 1.15625 -1.21875 C 1.15625 -1 1.238281 -0.820312 1.40625 -0.6875 C 1.570312 -0.5625 1.765625 -0.5 1.984375 -0.5 C 2.253906 -0.5 2.519531 -0.5625 2.78125 -0.6875 C 3.207031 -0.894531 3.421875 -1.238281 3.421875 -1.71875 L 3.421875 -2.34375 C 3.328125 -2.28125 3.203125 -2.226562 3.046875 -2.1875 C 2.898438 -2.144531 2.753906 -2.117188 2.609375 -2.109375 L 2.140625 -2.046875 C 1.867188 -2.003906 1.660156 -1.945312 1.515625 -1.875 C 1.273438 -1.738281 1.15625 -1.519531 1.15625 -1.21875 Z M 3.03125 -2.78125 C 3.207031 -2.8125 3.328125 -2.890625 3.390625 -3.015625 C 3.421875 -3.078125 3.4375 -3.175781 3.4375 -3.3125 C 3.4375 -3.570312 3.34375 -3.757812 3.15625 -3.875 C 2.96875 -4 2.703125 -4.0625 2.359375 -4.0625 C 1.953125 -4.0625 1.664062 -3.953125 1.5 -3.734375 C 1.40625 -3.609375 1.34375 -3.429688 1.3125 -3.203125 L 0.59375 -3.203125 C 0.601562 -3.765625 0.785156 -4.15625 1.140625 -4.375 C 1.492188 -4.601562 1.90625 -4.71875 2.375 -4.71875 C 2.914062 -4.71875 3.351562 -4.613281 3.6875 -4.40625 C 4.019531 -4.195312 4.1875 -3.875 4.1875 -3.4375 L 4.1875 -0.796875 C 4.1875 -0.710938 4.203125 -0.644531 4.234375 -0.59375 C 4.273438 -0.550781 4.347656 -0.53125 4.453125 -0.53125 C 4.484375 -0.53125 4.519531 -0.53125 4.5625 -0.53125 C 4.601562 -0.53125 4.648438 -0.535156 4.703125 -0.546875 L 4.703125 0.015625 C 4.578125 0.0546875 4.484375 0.078125 4.421875 0.078125 C 4.359375 0.0859375 4.273438 0.09375 4.171875 0.09375 C 3.898438 0.09375 3.707031 0 3.59375 -0.1875 C 3.53125 -0.28125 3.484375 -0.421875 3.453125 -0.609375 C 3.296875 -0.398438 3.070312 -0.21875 2.78125 -0.0625 C 2.488281 0.0820312 2.160156 0.15625 1.796875 0.15625 C 1.367188 0.15625 1.019531 0.0234375 0.75 -0.234375 C 0.488281 -0.492188 0.359375 -0.816406 0.359375 -1.203125 C 0.359375 -1.628906 0.488281 -1.957031 0.75 -2.1875 C 1.019531 -2.425781 1.367188 -2.578125 1.796875 -2.640625 Z M 2.390625 -4.71875 Z M 2.390625 -4.71875 "/>
</g>
<g id="glyph-0-13">
<path d="M 0.59375 -4.59375 L 1.328125 -4.59375 L 1.328125 -3.8125 C 1.378906 -3.957031 1.523438 -4.140625 1.765625 -4.359375 C 2.003906 -4.585938 2.273438 -4.703125 2.578125 -4.703125 C 2.585938 -4.703125 2.609375 -4.695312 2.640625 -4.6875 C 2.679688 -4.6875 2.742188 -4.6875 2.828125 -4.6875 L 2.828125 -3.859375 C 2.773438 -3.867188 2.726562 -3.875 2.6875 -3.875 C 2.65625 -3.882812 2.617188 -3.890625 2.578125 -3.890625 C 2.179688 -3.890625 1.878906 -3.765625 1.671875 -3.515625 C 1.460938 -3.265625 1.359375 -2.972656 1.359375 -2.640625 L 1.359375 0 L 0.59375 0 Z M 0.59375 -4.59375 "/>
</g>
<g id="glyph-0-14">
<path d="M 0.5625 -4.578125 L 1.359375 -4.578125 L 1.359375 0 L 0.5625 0 Z M 0.5625 -6.3125 L 1.359375 -6.3125 L 1.359375 -5.4375 L 0.5625 -5.4375 Z M 0.5625 -6.3125 "/>
</g>
<g id="glyph-0-15">
<path d="M 3.09375 -0.734375 C 3.382812 -0.734375 3.625 -0.765625 3.8125 -0.828125 C 4.132812 -0.929688 4.40625 -1.144531 4.625 -1.46875 C 4.789062 -1.71875 4.910156 -2.039062 4.984375 -2.4375 C 5.023438 -2.675781 5.046875 -2.898438 5.046875 -3.109375 C 5.046875 -3.890625 4.890625 -4.492188 4.578125 -4.921875 C 4.273438 -5.359375 3.773438 -5.578125 3.078125 -5.578125 L 1.5625 -5.578125 L 1.5625 -0.734375 Z M 0.703125 -6.3125 L 3.265625 -6.3125 C 4.128906 -6.3125 4.800781 -6.003906 5.28125 -5.390625 C 5.707031 -4.828125 5.921875 -4.113281 5.921875 -3.25 C 5.921875 -2.582031 5.796875 -1.976562 5.546875 -1.4375 C 5.097656 -0.476562 4.332031 0 3.25 0 L 0.703125 0 Z M 0.703125 -6.3125 "/>
</g>
<g id="glyph-0-16">
<path d="M 0.5625 -4.59375 L 1.296875 -4.59375 L 1.296875 -3.953125 C 1.515625 -4.210938 1.742188 -4.398438 1.984375 -4.515625 C 2.234375 -4.640625 2.507812 -4.703125 2.8125 -4.703125 C 3.457031 -4.703125 3.894531 -4.472656 4.125 -4.015625 C 4.25 -3.765625 4.3125 -3.410156 4.3125 -2.953125 L 4.3125 0 L 3.53125 0 L 3.53125 -2.90625 C 3.53125 -3.175781 3.488281 -3.398438 3.40625 -3.578125 C 3.269531 -3.859375 3.019531 -4 2.65625 -4 C 2.476562 -4 2.328125 -3.984375 2.203125 -3.953125 C 1.992188 -3.890625 1.8125 -3.765625 1.65625 -3.578125 C 1.519531 -3.421875 1.429688 -3.257812 1.390625 -3.09375 C 1.359375 -2.9375 1.34375 -2.707031 1.34375 -2.40625 L 1.34375 0 L 0.5625 0 Z M 2.390625 -4.71875 Z M 2.390625 -4.71875 "/>
</g>
<g id="glyph-0-17">
<path d="M 0.5625 -4.59375 L 1.328125 -4.59375 L 1.328125 -3.953125 C 1.515625 -4.171875 1.679688 -4.332031 1.828125 -4.4375 C 2.085938 -4.613281 2.378906 -4.703125 2.703125 -4.703125 C 3.066406 -4.703125 3.359375 -4.613281 3.578125 -4.4375 C 3.703125 -4.332031 3.816406 -4.179688 3.921875 -3.984375 C 4.097656 -4.222656 4.300781 -4.398438 4.53125 -4.515625 C 4.757812 -4.640625 5.019531 -4.703125 5.3125 -4.703125 C 5.925781 -4.703125 6.347656 -4.476562 6.578125 -4.03125 C 6.691406 -3.789062 6.75 -3.46875 6.75 -3.0625 L 6.75 0 L 5.953125 0 L 5.953125 -3.203125 C 5.953125 -3.503906 5.875 -3.710938 5.71875 -3.828125 C 5.570312 -3.941406 5.382812 -4 5.15625 -4 C 4.851562 -4 4.59375 -3.894531 4.375 -3.6875 C 4.15625 -3.488281 4.046875 -3.148438 4.046875 -2.671875 L 4.046875 0 L 3.265625 0 L 3.265625 -3 C 3.265625 -3.3125 3.226562 -3.539062 3.15625 -3.6875 C 3.039062 -3.894531 2.820312 -4 2.5 -4 C 2.207031 -4 1.941406 -3.882812 1.703125 -3.65625 C 1.460938 -3.4375 1.34375 -3.03125 1.34375 -2.4375 L 1.34375 0 L 0.5625 0 Z M 0.5625 -4.59375 "/>
</g>
<g id="glyph-0-18">
<path d="M 0.546875 -6.3125 L 1.296875 -6.3125 L 1.296875 -2.640625 L 3.28125 -4.59375 L 4.265625 -4.59375 L 2.5 -2.875 L 4.359375 0 L 3.375 0 L 1.9375 -2.3125 L 1.296875 -1.734375 L 1.296875 0 L 0.546875 0 Z M 0.546875 -6.3125 "/>
</g>
<g id="glyph-0-19">
<path d="M 0.75 -6.3125 L 5.125 -6.3125 L 5.125 -5.53125 L 1.609375 -5.53125 L 1.609375 -3.625 L 4.703125 -3.625 L 4.703125 -2.875 L 1.609375 -2.875 L 1.609375 0 L 0.75 0 Z M 0.75 -6.3125 "/>
</g>
<g id="glyph-0-20">
<path d="M 2.484375 -4.703125 C 2.804688 -4.703125 3.117188 -4.625 3.421875 -4.46875 C 3.734375 -4.320312 3.96875 -4.125 4.125 -3.875 C 4.28125 -3.644531 4.382812 -3.375 4.4375 -3.0625 C 4.488281 -2.851562 4.515625 -2.515625 4.515625 -2.046875 L 1.140625 -2.046875 C 1.148438 -1.585938 1.257812 -1.210938 1.46875 -0.921875 C 1.675781 -0.640625 1.992188 -0.5 2.421875 -0.5 C 2.828125 -0.5 3.148438 -0.632812 3.390625 -0.90625 C 3.523438 -1.0625 3.625 -1.238281 3.6875 -1.4375 L 4.453125 -1.4375 C 4.429688 -1.269531 4.363281 -1.082031 4.25 -0.875 C 4.132812 -0.664062 4.003906 -0.5 3.859375 -0.375 C 3.628906 -0.144531 3.34375 0.0078125 3 0.09375 C 2.8125 0.132812 2.597656 0.15625 2.359375 0.15625 C 1.785156 0.15625 1.300781 -0.0507812 0.90625 -0.46875 C 0.507812 -0.882812 0.3125 -1.46875 0.3125 -2.21875 C 0.3125 -2.945312 0.507812 -3.539062 0.90625 -4 C 1.3125 -4.46875 1.835938 -4.703125 2.484375 -4.703125 Z M 3.71875 -2.671875 C 3.6875 -3.003906 3.613281 -3.269531 3.5 -3.46875 C 3.28125 -3.84375 2.925781 -4.03125 2.4375 -4.03125 C 2.082031 -4.03125 1.785156 -3.898438 1.546875 -3.640625 C 1.304688 -3.390625 1.175781 -3.066406 1.15625 -2.671875 Z M 2.40625 -4.71875 Z M 2.40625 -4.71875 "/>
</g>
<g id="glyph-0-21">
<path d="M 0.6875 -6.3125 L 1.5625 -6.3125 L 1.5625 -3.703125 L 4.84375 -3.703125 L 4.84375 -6.3125 L 5.703125 -6.3125 L 5.703125 0 L 4.84375 0 L 4.84375 -2.953125 L 1.5625 -2.953125 L 1.5625 0 L 0.6875 0 Z M 0.6875 -6.3125 "/>
</g>
<g id="glyph-0-22">
<path d="M 1.03125 -1.4375 C 1.050781 -1.1875 1.113281 -0.988281 1.21875 -0.84375 C 1.414062 -0.601562 1.753906 -0.484375 2.234375 -0.484375 C 2.515625 -0.484375 2.765625 -0.539062 2.984375 -0.65625 C 3.203125 -0.78125 3.3125 -0.972656 3.3125 -1.234375 C 3.3125 -1.429688 3.222656 -1.582031 3.046875 -1.6875 C 2.941406 -1.75 2.722656 -1.820312 2.390625 -1.90625 L 1.78125 -2.0625 C 1.382812 -2.164062 1.09375 -2.273438 0.90625 -2.390625 C 0.570312 -2.597656 0.40625 -2.890625 0.40625 -3.265625 C 0.40625 -3.691406 0.5625 -4.039062 0.875 -4.3125 C 1.195312 -4.582031 1.617188 -4.71875 2.140625 -4.71875 C 2.835938 -4.71875 3.335938 -4.515625 3.640625 -4.109375 C 3.835938 -3.847656 3.929688 -3.570312 3.921875 -3.28125 L 3.203125 -3.28125 C 3.179688 -3.457031 3.117188 -3.613281 3.015625 -3.75 C 2.835938 -3.957031 2.53125 -4.0625 2.09375 -4.0625 C 1.800781 -4.0625 1.578125 -4.003906 1.421875 -3.890625 C 1.273438 -3.773438 1.203125 -3.628906 1.203125 -3.453125 C 1.203125 -3.253906 1.300781 -3.09375 1.5 -2.96875 C 1.613281 -2.894531 1.78125 -2.832031 2 -2.78125 L 2.515625 -2.65625 C 3.066406 -2.519531 3.4375 -2.390625 3.625 -2.265625 C 3.925781 -2.066406 4.078125 -1.753906 4.078125 -1.328125 C 4.078125 -0.921875 3.921875 -0.566406 3.609375 -0.265625 C 3.304688 0.0234375 2.832031 0.171875 2.1875 0.171875 C 1.507812 0.171875 1.023438 0.0195312 0.734375 -0.28125 C 0.453125 -0.59375 0.300781 -0.976562 0.28125 -1.4375 Z M 2.171875 -4.71875 Z M 2.171875 -4.71875 "/>
</g>
<g id="glyph-0-23">
<path d="M 0.859375 -6.3125 L 1.734375 -6.3125 L 1.734375 0 L 0.859375 0 Z M 0.859375 -6.3125 "/>
</g>
<g id="glyph-0-24">
<path d="M 1.0625 -2.25 C 1.0625 -1.75 1.164062 -1.332031 1.375 -1 C 1.582031 -0.675781 1.914062 -0.515625 2.375 -0.515625 C 2.726562 -0.515625 3.019531 -0.664062 3.25 -0.96875 C 3.488281 -1.28125 3.609375 -1.722656 3.609375 -2.296875 C 3.609375 -2.878906 3.488281 -3.304688 3.25 -3.578125 C 3.007812 -3.859375 2.710938 -4 2.359375 -4 C 1.972656 -4 1.660156 -3.847656 1.421875 -3.546875 C 1.179688 -3.253906 1.0625 -2.820312 1.0625 -2.25 Z M 2.21875 -4.6875 C 2.570312 -4.6875 2.867188 -4.609375 3.109375 -4.453125 C 3.242188 -4.367188 3.398438 -4.21875 3.578125 -4 L 3.578125 -6.328125 L 4.3125 -6.328125 L 4.3125 0 L 3.625 0 L 3.625 -0.640625 C 3.4375 -0.359375 3.21875 -0.15625 2.96875 -0.03125 C 2.726562 0.09375 2.453125 0.15625 2.140625 0.15625 C 1.617188 0.15625 1.171875 -0.0546875 0.796875 -0.484375 C 0.421875 -0.910156 0.234375 -1.484375 0.234375 -2.203125 C 0.234375 -2.867188 0.40625 -3.445312 0.75 -3.9375 C 1.09375 -4.4375 1.582031 -4.6875 2.21875 -4.6875 Z M 2.21875 -4.6875 "/>
</g>
<g id="glyph-0-25">
<path d="M 0.71875 -5.890625 L 1.5 -5.890625 L 1.5 -4.59375 L 2.234375 -4.59375 L 2.234375 -3.96875 L 1.5 -3.96875 L 1.5 -0.96875 C 1.5 -0.800781 1.554688 -0.691406 1.671875 -0.640625 C 1.722656 -0.609375 1.820312 -0.59375 1.96875 -0.59375 C 2 -0.59375 2.035156 -0.59375 2.078125 -0.59375 C 2.128906 -0.59375 2.179688 -0.597656 2.234375 -0.609375 L 2.234375 0 C 2.148438 0.0195312 2.054688 0.0351562 1.953125 0.046875 C 1.859375 0.0664062 1.757812 0.078125 1.65625 0.078125 C 1.289062 0.078125 1.039062 -0.015625 0.90625 -0.203125 C 0.78125 -0.390625 0.71875 -0.628906 0.71875 -0.921875 L 0.71875 -3.96875 L 0.09375 -3.96875 L 0.09375 -4.59375 L 0.71875 -4.59375 Z M 0.71875 -5.890625 "/>
</g>
<g id="glyph-0-26">
<path d="M 0.671875 -6.3125 L 1.5 -6.3125 L 1.5 -3.234375 L 4.578125 -6.3125 L 5.765625 -6.3125 L 3.140625 -3.765625 L 5.828125 0 L 4.71875 0 L 2.515625 -3.171875 L 1.5 -2.203125 L 1.5 0 L 0.671875 0 Z M 0.671875 -6.3125 "/>
</g>
<g id="glyph-0-27">
<path d="M 2.390625 -0.5 C 2.898438 -0.5 3.25 -0.691406 3.4375 -1.078125 C 3.632812 -1.460938 3.734375 -1.894531 3.734375 -2.375 C 3.734375 -2.800781 3.664062 -3.148438 3.53125 -3.421875 C 3.3125 -3.847656 2.9375 -4.0625 2.40625 -4.0625 C 1.925781 -4.0625 1.578125 -3.878906 1.359375 -3.515625 C 1.148438 -3.160156 1.046875 -2.726562 1.046875 -2.21875 C 1.046875 -1.726562 1.148438 -1.316406 1.359375 -0.984375 C 1.578125 -0.660156 1.921875 -0.5 2.390625 -0.5 Z M 2.421875 -4.734375 C 3.015625 -4.734375 3.515625 -4.535156 3.921875 -4.140625 C 4.335938 -3.742188 4.546875 -3.160156 4.546875 -2.390625 C 4.546875 -1.648438 4.363281 -1.035156 4 -0.546875 C 3.632812 -0.0664062 3.070312 0.171875 2.3125 0.171875 C 1.6875 0.171875 1.1875 -0.0390625 0.8125 -0.46875 C 0.4375 -0.894531 0.25 -1.472656 0.25 -2.203125 C 0.25 -2.972656 0.445312 -3.585938 0.84375 -4.046875 C 1.238281 -4.503906 1.765625 -4.734375 2.421875 -4.734375 Z M 2.390625 -4.71875 Z M 2.390625 -4.71875 "/>
</g>
<g id="glyph-0-28">
<path d="M 0.671875 -6.3125 L 1.53125 -6.3125 L 1.53125 -0.75 L 4.71875 -0.75 L 4.71875 0 L 0.671875 0 Z M 0.671875 -6.3125 "/>
</g>
<g id="glyph-0-29">
<path d="M 0.65625 -6.3125 L 1.875 -6.3125 L 3.6875 -0.96875 L 5.484375 -6.3125 L 6.703125 -6.3125 L 6.703125 0 L 5.890625 0 L 5.890625 -3.71875 C 5.890625 -3.851562 5.890625 -4.066406 5.890625 -4.359375 C 5.898438 -4.660156 5.90625 -4.984375 5.90625 -5.328125 L 4.109375 0 L 3.25 0 L 1.4375 -5.328125 L 1.4375 -5.125 C 1.4375 -4.96875 1.441406 -4.734375 1.453125 -4.421875 C 1.460938 -4.109375 1.46875 -3.875 1.46875 -3.71875 L 1.46875 0 L 0.65625 0 Z M 0.65625 -6.3125 "/>
</g>
<g id="glyph-0-30">
<path d="M 0.75 -6.3125 L 3.59375 -6.3125 C 4.15625 -6.3125 4.609375 -6.148438 4.953125 -5.828125 C 5.296875 -5.515625 5.46875 -5.070312 5.46875 -4.5 C 5.46875 -4.007812 5.3125 -3.582031 5 -3.21875 C 4.695312 -2.851562 4.226562 -2.671875 3.59375 -2.671875 L 1.609375 -2.671875 L 1.609375 0 L 0.75 0 Z M 4.59375 -4.5 C 4.59375 -4.957031 4.421875 -5.269531 4.078125 -5.4375 C 3.890625 -5.53125 3.632812 -5.578125 3.3125 -5.578125 L 1.609375 -5.578125 L 1.609375 -3.390625 L 3.3125 -3.390625 C 3.695312 -3.390625 4.003906 -3.46875 4.234375 -3.625 C 4.472656 -3.789062 4.59375 -4.082031 4.59375 -4.5 Z M 4.59375 -4.5 "/>
</g>
<g id="glyph-0-31">
<path d="M 3.609375 -3.421875 C 4.003906 -3.421875 4.316406 -3.5 4.546875 -3.65625 C 4.785156 -3.820312 4.90625 -4.113281 4.90625 -4.53125 C 4.90625 -4.976562 4.742188 -5.285156 4.421875 -5.453125 C 4.242188 -5.535156 4.007812 -5.578125 3.71875 -5.578125 L 1.625 -5.578125 L 1.625 -3.421875 Z M 0.765625 -6.3125 L 3.6875 -6.3125 C 4.175781 -6.3125 4.578125 -6.238281 4.890625 -6.09375 C 5.472656 -5.832031 5.765625 -5.335938 5.765625 -4.609375 C 5.765625 -4.234375 5.6875 -3.921875 5.53125 -3.671875 C 5.382812 -3.429688 5.171875 -3.238281 4.890625 -3.09375 C 5.128906 -3 5.3125 -2.867188 5.4375 -2.703125 C 5.5625 -2.546875 5.628906 -2.28125 5.640625 -1.90625 L 5.671875 -1.0625 C 5.679688 -0.820312 5.703125 -0.644531 5.734375 -0.53125 C 5.785156 -0.332031 5.878906 -0.203125 6.015625 -0.140625 L 6.015625 0 L 4.96875 0 C 4.9375 -0.0507812 4.910156 -0.117188 4.890625 -0.203125 C 4.878906 -0.296875 4.867188 -0.460938 4.859375 -0.703125 L 4.796875 -1.765625 C 4.773438 -2.171875 4.625 -2.445312 4.34375 -2.59375 C 4.175781 -2.664062 3.921875 -2.703125 3.578125 -2.703125 L 1.625 -2.703125 L 1.625 0 L 0.765625 0 Z M 0.765625 -6.3125 "/>
</g>
<g id="glyph-0-32">
<path d="M 1.234375 -2.03125 C 1.253906 -1.675781 1.335938 -1.382812 1.484375 -1.15625 C 1.765625 -0.738281 2.265625 -0.53125 2.984375 -0.53125 C 3.304688 -0.53125 3.597656 -0.578125 3.859375 -0.671875 C 4.367188 -0.847656 4.625 -1.164062 4.625 -1.625 C 4.625 -1.96875 4.515625 -2.210938 4.296875 -2.359375 C 4.078125 -2.503906 3.738281 -2.628906 3.28125 -2.734375 L 2.421875 -2.921875 C 1.859375 -3.054688 1.460938 -3.195312 1.234375 -3.34375 C 0.835938 -3.601562 0.640625 -4 0.640625 -4.53125 C 0.640625 -5.09375 0.832031 -5.554688 1.21875 -5.921875 C 1.613281 -6.285156 2.171875 -6.46875 2.890625 -6.46875 C 3.554688 -6.46875 4.117188 -6.304688 4.578125 -5.984375 C 5.035156 -5.671875 5.265625 -5.160156 5.265625 -4.453125 L 4.46875 -4.453125 C 4.425781 -4.796875 4.332031 -5.054688 4.1875 -5.234375 C 3.925781 -5.566406 3.484375 -5.734375 2.859375 -5.734375 C 2.359375 -5.734375 2 -5.625 1.78125 -5.40625 C 1.5625 -5.195312 1.453125 -4.953125 1.453125 -4.671875 C 1.453125 -4.359375 1.578125 -4.132812 1.828125 -4 C 2.003906 -3.90625 2.390625 -3.789062 2.984375 -3.65625 L 3.859375 -3.453125 C 4.285156 -3.347656 4.617188 -3.210938 4.859375 -3.046875 C 5.253906 -2.753906 5.453125 -2.328125 5.453125 -1.765625 C 5.453125 -1.066406 5.195312 -0.566406 4.6875 -0.265625 C 4.1875 0.0351562 3.597656 0.1875 2.921875 0.1875 C 2.140625 0.1875 1.523438 -0.015625 1.078125 -0.421875 C 0.628906 -0.816406 0.410156 -1.351562 0.421875 -2.03125 Z M 2.953125 -6.484375 Z M 2.953125 -6.484375 "/>
</g>
<g id="glyph-0-33">
<path d="M 0.5 -6.328125 L 1.265625 -6.328125 L 1.265625 -4.046875 C 1.429688 -4.265625 1.628906 -4.429688 1.859375 -4.546875 C 2.097656 -4.660156 2.351562 -4.71875 2.625 -4.71875 C 3.195312 -4.71875 3.660156 -4.519531 4.015625 -4.125 C 4.378906 -3.738281 4.5625 -3.160156 4.5625 -2.390625 C 4.5625 -1.660156 4.382812 -1.054688 4.03125 -0.578125 C 3.675781 -0.0976562 3.1875 0.140625 2.5625 0.140625 C 2.21875 0.140625 1.921875 0.0546875 1.671875 -0.109375 C 1.535156 -0.203125 1.382812 -0.363281 1.21875 -0.59375 L 1.21875 0 L 0.5 0 Z M 2.515625 -0.53125 C 2.929688 -0.53125 3.242188 -0.695312 3.453125 -1.03125 C 3.660156 -1.363281 3.765625 -1.800781 3.765625 -2.34375 C 3.765625 -2.832031 3.660156 -3.234375 3.453125 -3.546875 C 3.242188 -3.867188 2.9375 -4.03125 2.53125 -4.03125 C 2.1875 -4.03125 1.878906 -3.898438 1.609375 -3.640625 C 1.347656 -3.378906 1.21875 -2.945312 1.21875 -2.34375 C 1.21875 -1.914062 1.269531 -1.566406 1.375 -1.296875 C 1.582031 -0.785156 1.960938 -0.53125 2.515625 -0.53125 Z M 2.515625 -0.53125 "/>
</g>
<g id="glyph-0-34">
<path d="M 0.9375 -4.59375 L 2.171875 -0.859375 L 3.453125 -4.59375 L 4.296875 -4.59375 L 2.5625 0 L 1.75 0 L 0.046875 -4.59375 Z M 0.9375 -4.59375 "/>
</g>
<g id="glyph-0-35">
<path d="M 5.265625 -6.3125 L 5.265625 -5.5625 L 3.140625 -5.5625 L 3.140625 0 L 2.265625 0 L 2.265625 -5.5625 L 0.140625 -5.5625 L 0.140625 -6.3125 Z M 5.265625 -6.3125 "/>
</g>
<g id="glyph-0-36">
<path d="M 1.34375 -5.421875 L 0.5625 -5.421875 L 0.5625 -6.3125 L 1.34375 -6.3125 Z M -0.15625 1.15625 C 0.183594 1.144531 0.390625 1.113281 0.453125 1.0625 C 0.523438 1.019531 0.5625 0.863281 0.5625 0.59375 L 0.5625 -4.578125 L 1.34375 -4.578125 L 1.34375 0.6875 C 1.34375 1.019531 1.285156 1.269531 1.171875 1.4375 C 0.992188 1.71875 0.65625 1.859375 0.15625 1.859375 C 0.113281 1.859375 0.0703125 1.851562 0.03125 1.84375 C -0.0078125 1.84375 -0.0703125 1.835938 -0.15625 1.828125 Z M -0.15625 1.15625 "/>
</g>
<g id="glyph-1-0">
<path d="M 0.359375 0 L 0.359375 -7.890625 L 6.625 -7.890625 L 6.625 0 Z M 5.625 -0.984375 L 5.625 -6.90625 L 1.34375 -6.90625 L 1.34375 -0.984375 Z M 5.625 -0.984375 "/>
</g>
<g id="glyph-1-1">
<path d="M 0.21875 -7.890625 L 1.46875 -7.890625 L 3.734375 -4.09375 L 6 -7.890625 L 7.25 -7.890625 L 4.28125 -3.1875 L 4.28125 0 L 3.203125 0 L 3.203125 -3.1875 Z M 3.75 -7.890625 Z M 3.75 -7.890625 "/>
</g>
<g id="glyph-1-2">
<path d="M 3.109375 -5.875 C 3.515625 -5.875 3.90625 -5.78125 4.28125 -5.59375 C 4.664062 -5.40625 4.960938 -5.15625 5.171875 -4.84375 C 5.359375 -4.5625 5.484375 -4.222656 5.546875 -3.828125 C 5.609375 -3.566406 5.640625 -3.144531 5.640625 -2.5625 L 1.421875 -2.5625 C 1.441406 -1.976562 1.578125 -1.507812 1.828125 -1.15625 C 2.085938 -0.8125 2.488281 -0.640625 3.03125 -0.640625 C 3.539062 -0.640625 3.945312 -0.804688 4.25 -1.140625 C 4.414062 -1.328125 4.535156 -1.550781 4.609375 -1.8125 L 5.5625 -1.8125 C 5.53125 -1.59375 5.441406 -1.351562 5.296875 -1.09375 C 5.160156 -0.832031 5.003906 -0.625 4.828125 -0.46875 C 4.535156 -0.175781 4.175781 0.0195312 3.75 0.125 C 3.507812 0.175781 3.242188 0.203125 2.953125 0.203125 C 2.234375 0.203125 1.625 -0.0546875 1.125 -0.578125 C 0.632812 -1.097656 0.390625 -1.828125 0.390625 -2.765625 C 0.390625 -3.691406 0.640625 -4.441406 1.140625 -5.015625 C 1.640625 -5.585938 2.296875 -5.875 3.109375 -5.875 Z M 4.640625 -3.328125 C 4.609375 -3.753906 4.519531 -4.09375 4.375 -4.34375 C 4.101562 -4.800781 3.660156 -5.03125 3.046875 -5.03125 C 2.597656 -5.03125 2.222656 -4.867188 1.921875 -4.546875 C 1.628906 -4.234375 1.472656 -3.828125 1.453125 -3.328125 Z M 3.015625 -5.890625 Z M 3.015625 -5.890625 "/>
</g>
<g id="glyph-1-3">
<path d="M 1.453125 -1.53125 C 1.453125 -1.25 1.550781 -1.023438 1.75 -0.859375 C 1.957031 -0.703125 2.203125 -0.625 2.484375 -0.625 C 2.816406 -0.625 3.144531 -0.703125 3.46875 -0.859375 C 4.007812 -1.117188 4.28125 -1.550781 4.28125 -2.15625 L 4.28125 -2.921875 C 4.15625 -2.847656 4 -2.785156 3.8125 -2.734375 C 3.632812 -2.691406 3.453125 -2.65625 3.265625 -2.625 L 2.6875 -2.5625 C 2.332031 -2.507812 2.066406 -2.4375 1.890625 -2.34375 C 1.597656 -2.164062 1.453125 -1.894531 1.453125 -1.53125 Z M 3.796875 -3.484375 C 4.015625 -3.515625 4.160156 -3.609375 4.234375 -3.765625 C 4.273438 -3.847656 4.296875 -3.972656 4.296875 -4.140625 C 4.296875 -4.460938 4.175781 -4.695312 3.9375 -4.84375 C 3.707031 -5 3.375 -5.078125 2.9375 -5.078125 C 2.4375 -5.078125 2.082031 -4.941406 1.875 -4.671875 C 1.75 -4.515625 1.671875 -4.289062 1.640625 -4 L 0.734375 -4 C 0.753906 -4.707031 0.984375 -5.195312 1.421875 -5.46875 C 1.867188 -5.75 2.382812 -5.890625 2.96875 -5.890625 C 3.644531 -5.890625 4.191406 -5.757812 4.609375 -5.5 C 5.035156 -5.25 5.25 -4.847656 5.25 -4.296875 L 5.25 -0.984375 C 5.25 -0.890625 5.265625 -0.8125 5.296875 -0.75 C 5.335938 -0.6875 5.425781 -0.65625 5.5625 -0.65625 C 5.601562 -0.65625 5.648438 -0.65625 5.703125 -0.65625 C 5.765625 -0.664062 5.820312 -0.675781 5.875 -0.6875 L 5.875 0.03125 C 5.726562 0.0703125 5.613281 0.0976562 5.53125 0.109375 C 5.457031 0.117188 5.351562 0.125 5.21875 0.125 C 4.882812 0.125 4.640625 0.00390625 4.484375 -0.234375 C 4.410156 -0.359375 4.359375 -0.535156 4.328125 -0.765625 C 4.128906 -0.503906 3.84375 -0.28125 3.46875 -0.09375 C 3.101562 0.0898438 2.695312 0.1875 2.25 0.1875 C 1.71875 0.1875 1.28125 0.0234375 0.9375 -0.296875 C 0.601562 -0.617188 0.4375 -1.023438 0.4375 -1.515625 C 0.4375 -2.046875 0.601562 -2.457031 0.9375 -2.75 C 1.269531 -3.039062 1.707031 -3.222656 2.25 -3.296875 Z M 2.984375 -5.890625 Z M 2.984375 -5.890625 "/>
</g>
<g id="glyph-1-4">
<path d="M 0.734375 -5.75 L 1.65625 -5.75 L 1.65625 -4.765625 C 1.726562 -4.953125 1.910156 -5.179688 2.203125 -5.453125 C 2.492188 -5.734375 2.832031 -5.875 3.21875 -5.875 C 3.238281 -5.875 3.269531 -5.875 3.3125 -5.875 C 3.351562 -5.875 3.425781 -5.867188 3.53125 -5.859375 L 3.53125 -4.828125 C 3.476562 -4.835938 3.425781 -4.84375 3.375 -4.84375 C 3.320312 -4.851562 3.269531 -4.859375 3.21875 -4.859375 C 2.726562 -4.859375 2.351562 -4.703125 2.09375 -4.390625 C 1.832031 -4.078125 1.703125 -3.71875 1.703125 -3.3125 L 1.703125 0 L 0.734375 0 Z M 0.734375 -5.75 "/>
</g>
<g id="glyph-2-0">
<path d="M 0 -0.359375 L -7.890625 -0.359375 L -7.890625 -6.625 L 0 -6.625 Z M -0.984375 -5.625 L -6.90625 -5.625 L -6.90625 -1.34375 L -0.984375 -1.34375 Z M -0.984375 -5.625 "/>
</g>
<g id="glyph-2-1">
<path d="M -8.09375 -4.25 C -8.09375 -4.988281 -7.953125 -5.628906 -7.671875 -6.171875 C -7.253906 -6.953125 -6.53125 -7.429688 -5.5 -7.609375 L -5.5 -6.546875 C -6.070312 -6.421875 -6.488281 -6.15625 -6.75 -5.75 C -7.019531 -5.34375 -7.15625 -4.832031 -7.15625 -4.21875 C -7.15625 -3.488281 -6.878906 -2.875 -6.328125 -2.375 C -5.785156 -1.875 -4.972656 -1.625 -3.890625 -1.625 C -2.941406 -1.625 -2.171875 -1.828125 -1.578125 -2.234375 C -0.992188 -2.648438 -0.703125 -3.328125 -0.703125 -4.265625 C -0.703125 -4.972656 -0.910156 -5.5625 -1.328125 -6.03125 C -1.742188 -6.5 -2.410156 -6.738281 -3.328125 -6.75 L -3.328125 -4.28125 L -4.21875 -4.28125 L -4.21875 -7.734375 L 0 -7.734375 L 0 -7.046875 L -1.015625 -6.796875 C -0.617188 -6.429688 -0.34375 -6.109375 -0.1875 -5.828125 C 0.0703125 -5.359375 0.203125 -4.765625 0.203125 -4.046875 C 0.203125 -3.109375 -0.0976562 -2.304688 -0.703125 -1.640625 C -1.460938 -0.898438 -2.503906 -0.53125 -3.828125 -0.53125 C -5.148438 -0.53125 -6.203125 -0.890625 -6.984375 -1.609375 C -7.722656 -2.285156 -8.09375 -3.164062 -8.09375 -4.25 Z M -8.109375 -4.078125 Z M -8.109375 -4.078125 "/>
</g>
<g id="glyph-2-2">
<path d="M -5.71875 -0.703125 L -5.71875 -1.6875 L 0 -1.6875 L 0 -0.703125 Z M -7.890625 -0.703125 L -7.890625 -1.6875 L -6.796875 -1.6875 L -6.796875 -0.703125 Z M -7.890625 -0.703125 "/>
</g>
<g id="glyph-2-3">
<path d="M -5.75 -0.703125 L -5.75 -1.625 L -4.9375 -1.625 C -5.269531 -1.894531 -5.507812 -2.179688 -5.65625 -2.484375 C -5.800781 -2.796875 -5.875 -3.132812 -5.875 -3.5 C -5.875 -4.320312 -5.59375 -4.875 -5.03125 -5.15625 C -4.71875 -5.3125 -4.269531 -5.390625 -3.6875 -5.390625 L 0 -5.390625 L 0 -4.421875 L -3.625 -4.421875 C -3.976562 -4.421875 -4.257812 -4.367188 -4.46875 -4.265625 C -4.832031 -4.085938 -5.015625 -3.773438 -5.015625 -3.328125 C -5.015625 -3.097656 -4.988281 -2.910156 -4.9375 -2.765625 C -4.863281 -2.492188 -4.707031 -2.257812 -4.46875 -2.0625 C -4.28125 -1.90625 -4.082031 -1.800781 -3.875 -1.75 C -3.675781 -1.695312 -3.390625 -1.671875 -3.015625 -1.671875 L 0 -1.671875 L 0 -0.703125 Z M -5.890625 -2.984375 Z M -5.890625 -2.984375 "/>
</g>
<g id="glyph-2-4">
<path d="M -3.5625 -0.453125 L -3.5625 -3.15625 L -2.5625 -3.15625 L -2.5625 -0.453125 Z M -3.5625 -0.453125 "/>
</g>
<g id="glyph-2-5">
<path d="M -7.890625 -0.6875 L -7.890625 -1.609375 L -3.3125 -1.609375 L -5.75 -4.09375 L -5.75 -5.328125 L -3.59375 -3.125 L 0 -5.453125 L 0 -4.21875 L -2.90625 -2.421875 L -2.15625 -1.609375 L 0 -1.609375 L 0 -0.6875 Z M -7.890625 -0.6875 "/>
</g>
<g id="glyph-2-6">
<path d="M -0.625 -2.984375 C -0.625 -3.628906 -0.863281 -4.070312 -1.34375 -4.3125 C -1.832031 -4.550781 -2.375 -4.671875 -2.96875 -4.671875 C -3.507812 -4.671875 -3.945312 -4.582031 -4.28125 -4.40625 C -4.8125 -4.132812 -5.078125 -3.664062 -5.078125 -3 C -5.078125 -2.40625 -4.847656 -1.972656 -4.390625 -1.703125 C -3.941406 -1.441406 -3.398438 -1.3125 -2.765625 -1.3125 C -2.148438 -1.3125 -1.640625 -1.441406 -1.234375 -1.703125 C -0.828125 -1.972656 -0.625 -2.398438 -0.625 -2.984375 Z M -5.921875 -3.03125 C -5.921875 -3.769531 -5.671875 -4.394531 -5.171875 -4.90625 C -4.679688 -5.414062 -3.957031 -5.671875 -3 -5.671875 C -2.070312 -5.671875 -1.304688 -5.445312 -0.703125 -5 C -0.0976562 -4.550781 0.203125 -3.851562 0.203125 -2.90625 C 0.203125 -2.113281 -0.0625 -1.484375 -0.59375 -1.015625 C -1.125 -0.546875 -1.84375 -0.3125 -2.75 -0.3125 C -3.71875 -0.3125 -4.488281 -0.554688 -5.0625 -1.046875 C -5.632812 -1.535156 -5.921875 -2.195312 -5.921875 -3.03125 Z M -5.890625 -3 Z M -5.890625 -3 "/>
</g>
<g id="glyph-2-7">
<path d="M -5.875 -3.109375 C -5.875 -3.515625 -5.78125 -3.90625 -5.59375 -4.28125 C -5.40625 -4.664062 -5.15625 -4.960938 -4.84375 -5.171875 C -4.5625 -5.359375 -4.222656 -5.484375 -3.828125 -5.546875 C -3.566406 -5.609375 -3.144531 -5.640625 -2.5625 -5.640625 L -2.5625 -1.421875 C -1.976562 -1.441406 -1.507812 -1.578125 -1.15625 -1.828125 C -0.8125 -2.085938 -0.640625 -2.488281 -0.640625 -3.03125 C -0.640625 -3.539062 -0.804688 -3.945312 -1.140625 -4.25 C -1.328125 -4.414062 -1.550781 -4.535156 -1.8125 -4.609375 L -1.8125 -5.5625 C -1.59375 -5.53125 -1.351562 -5.441406 -1.09375 -5.296875 C -0.832031 -5.160156 -0.625 -5.003906 -0.46875 -4.828125 C -0.175781 -4.535156 0.0195312 -4.175781 0.125 -3.75 C 0.175781 -3.507812 0.203125 -3.242188 0.203125 -2.953125 C 0.203125 -2.234375 -0.0546875 -1.625 -0.578125 -1.125 C -1.097656 -0.632812 -1.828125 -0.390625 -2.765625 -0.390625 C -3.691406 -0.390625 -4.441406 -0.640625 -5.015625 -1.140625 C -5.585938 -1.640625 -5.875 -2.296875 -5.875 -3.109375 Z M -3.328125 -4.640625 C -3.753906 -4.609375 -4.09375 -4.519531 -4.34375 -4.375 C -4.800781 -4.101562 -5.03125 -3.660156 -5.03125 -3.046875 C -5.03125 -2.597656 -4.867188 -2.222656 -4.546875 -1.921875 C -4.234375 -1.628906 -3.828125 -1.472656 -3.328125 -1.453125 Z M -5.890625 -3.015625 Z M -5.890625 -3.015625 "/>
</g>
<g id="glyph-2-8">
<path d="M -6.625 -0.953125 C -7.03125 -0.960938 -7.328125 -1.03125 -7.515625 -1.15625 C -7.835938 -1.382812 -8 -1.820312 -8 -2.46875 C -8 -2.53125 -8 -2.59375 -8 -2.65625 C -8 -2.71875 -7.992188 -2.789062 -7.984375 -2.875 L -7.09375 -2.875 C -7.101562 -2.769531 -7.109375 -2.695312 -7.109375 -2.65625 C -7.109375 -2.613281 -7.109375 -2.570312 -7.109375 -2.53125 C -7.109375 -2.238281 -7.03125 -2.0625 -6.875 -2 C -6.726562 -1.945312 -6.34375 -1.921875 -5.71875 -1.921875 L -5.71875 -2.875 L -4.96875 -2.875 L -4.96875 -1.90625 L 0 -1.90625 L 0 -0.953125 L -4.96875 -0.953125 L -4.96875 -0.15625 L -5.71875 -0.15625 L -5.71875 -0.953125 Z M -6.625 -0.953125 "/>
</g>
<g id="glyph-2-9">
<path d="M -6.625 -0.953125 C -7.03125 -0.960938 -7.328125 -1.03125 -7.515625 -1.15625 C -7.835938 -1.382812 -8 -1.820312 -8 -2.46875 C -8 -2.53125 -8 -2.59375 -8 -2.65625 C -8 -2.71875 -7.992188 -2.789062 -7.984375 -2.875 L -7.09375 -2.875 C -7.101562 -2.769531 -7.109375 -2.695312 -7.109375 -2.65625 C -7.109375 -2.613281 -7.109375 -2.570312 -7.109375 -2.53125 C -7.109375 -2.238281 -7.03125 -2.0625 -6.875 -2 C -6.726562 -1.945312 -6.34375 -1.921875 -5.71875 -1.921875 L -5.71875 -2.875 L -4.96875 -2.875 L -4.96875 -1.90625 L 0 -1.90625 L 0 -0.953125 L -4.96875 -0.953125 L -4.96875 -0.15625 L -5.71875 -0.15625 L -5.71875 -0.953125 Z M -6.796875 -3.796875 L -7.890625 -3.796875 L -7.890625 -4.765625 L -6.796875 -4.765625 Z M -5.71875 -3.796875 L -5.71875 -4.765625 L 0 -4.765625 L 0 -3.796875 Z M -5.71875 -3.796875 "/>
</g>
<g id="glyph-2-10">
<path d="M -1.8125 -1.28125 C -1.488281 -1.3125 -1.238281 -1.394531 -1.0625 -1.53125 C -0.75 -1.769531 -0.59375 -2.191406 -0.59375 -2.796875 C -0.59375 -3.148438 -0.671875 -3.460938 -0.828125 -3.734375 C -0.984375 -4.003906 -1.222656 -4.140625 -1.546875 -4.140625 C -1.796875 -4.140625 -1.984375 -4.03125 -2.109375 -3.8125 C -2.191406 -3.675781 -2.285156 -3.398438 -2.390625 -2.984375 L -2.578125 -2.21875 C -2.703125 -1.726562 -2.835938 -1.367188 -2.984375 -1.140625 C -3.253906 -0.722656 -3.617188 -0.515625 -4.078125 -0.515625 C -4.617188 -0.515625 -5.054688 -0.707031 -5.390625 -1.09375 C -5.734375 -1.488281 -5.90625 -2.019531 -5.90625 -2.6875 C -5.90625 -3.550781 -5.648438 -4.175781 -5.140625 -4.5625 C -4.816406 -4.800781 -4.46875 -4.914062 -4.09375 -4.90625 L -4.09375 -4 C -4.3125 -3.976562 -4.507812 -3.898438 -4.6875 -3.765625 C -4.945312 -3.546875 -5.078125 -3.160156 -5.078125 -2.609375 C -5.078125 -2.242188 -5.003906 -1.96875 -4.859375 -1.78125 C -4.722656 -1.59375 -4.539062 -1.5 -4.3125 -1.5 C -4.0625 -1.5 -3.863281 -1.625 -3.71875 -1.875 C -3.625 -2.007812 -3.539062 -2.21875 -3.46875 -2.5 L -3.3125 -3.140625 C -3.144531 -3.835938 -2.984375 -4.300781 -2.828125 -4.53125 C -2.578125 -4.914062 -2.191406 -5.109375 -1.671875 -5.109375 C -1.148438 -5.109375 -0.703125 -4.910156 -0.328125 -4.515625 C 0.0351562 -4.128906 0.21875 -3.539062 0.21875 -2.75 C 0.21875 -1.894531 0.0234375 -1.285156 -0.359375 -0.921875 C -0.753906 -0.566406 -1.238281 -0.378906 -1.8125 -0.359375 Z M -5.890625 -2.71875 Z M -5.890625 -2.71875 "/>
</g>
<g id="glyph-2-11">
<path d="M -7.359375 -0.90625 L -7.359375 -1.875 L -5.75 -1.875 L -5.75 -2.796875 L -4.96875 -2.796875 L -4.96875 -1.875 L -1.203125 -1.875 C -1.003906 -1.875 -0.875 -1.941406 -0.8125 -2.078125 C -0.769531 -2.160156 -0.75 -2.285156 -0.75 -2.453125 C -0.75 -2.503906 -0.75 -2.554688 -0.75 -2.609375 C -0.75 -2.660156 -0.753906 -2.722656 -0.765625 -2.796875 L 0 -2.796875 C 0.03125 -2.679688 0.0507812 -2.5625 0.0625 -2.4375 C 0.0820312 -2.320312 0.09375 -2.195312 0.09375 -2.0625 C 0.09375 -1.613281 -0.0195312 -1.304688 -0.25 -1.140625 C -0.488281 -0.984375 -0.789062 -0.90625 -1.15625 -0.90625 L -4.96875 -0.90625 L -4.96875 -0.125 L -5.75 -0.125 L -5.75 -0.90625 Z M -7.359375 -0.90625 "/>
</g>
<g id="glyph-3-0">
<path d="M 0.421875 0 L 0.421875 -9.46875 L 7.9375 -9.46875 L 7.9375 0 Z M 6.75 -1.1875 L 6.75 -8.28125 L 1.609375 -8.28125 L 1.609375 -1.1875 Z M 6.75 -1.1875 "/>
</g>
<g id="glyph-3-1">
<path d="M 1.03125 -9.46875 L 2.328125 -9.46875 L 2.328125 -5.5625 L 7.265625 -5.5625 L 7.265625 -9.46875 L 8.5625 -9.46875 L 8.5625 0 L 7.265625 0 L 7.265625 -4.421875 L 2.328125 -4.421875 L 2.328125 0 L 1.03125 0 Z M 1.03125 -9.46875 "/>
</g>
<g id="glyph-3-2">
<path d="M 5.453125 -5.4375 C 5.335938 -5.625 5.144531 -5.78125 4.875 -5.90625 C 4.601562 -6.03125 4.304688 -6.09375 3.984375 -6.09375 C 3.359375 -6.09375 2.859375 -5.832031 2.484375 -5.3125 C 2.109375 -4.789062 1.921875 -4.117188 1.921875 -3.296875 C 1.921875 -2.984375 1.953125 -2.6875 2.015625 -2.40625 C 2.054688 -2.25 2.125 -2.046875 2.21875 -1.796875 Z M 2.5 -1.375 C 2.707031 -1.125 2.929688 -0.957031 3.171875 -0.875 C 3.421875 -0.789062 3.675781 -0.75 3.9375 -0.75 C 4.75 -0.75 5.320312 -1.128906 5.65625 -1.890625 C 5.863281 -2.347656 5.96875 -2.878906 5.96875 -3.484375 C 5.96875 -3.867188 5.9375 -4.203125 5.875 -4.484375 C 5.84375 -4.628906 5.785156 -4.804688 5.703125 -5.015625 Z M 0.59375 -0.03125 L 1.421875 -0.890625 C 1.203125 -1.210938 1.035156 -1.570312 0.921875 -1.96875 C 0.804688 -2.363281 0.75 -2.832031 0.75 -3.375 C 0.75 -4.34375 1.019531 -5.207031 1.5625 -5.96875 C 2.101562 -6.726562 2.894531 -7.109375 3.9375 -7.109375 C 4.476562 -7.109375 4.953125 -7.007812 5.359375 -6.8125 C 5.597656 -6.695312 5.875 -6.507812 6.1875 -6.25 L 7 -7.15625 L 7.328125 -6.84375 L 6.5 -5.90625 C 6.769531 -5.507812 6.960938 -5.054688 7.078125 -4.546875 C 7.148438 -4.222656 7.1875 -3.894531 7.1875 -3.5625 C 7.1875 -2.445312 6.890625 -1.53125 6.296875 -0.8125 C 5.703125 -0.09375 4.90625 0.265625 3.90625 0.265625 C 3.4375 0.265625 3.015625 0.191406 2.640625 0.046875 C 2.273438 -0.0859375 1.976562 -0.273438 1.75 -0.515625 L 0.96875 0.3125 Z M 0.59375 -0.03125 "/>
</g>
<g id="glyph-3-3">
<path d="M 5.15625 -6.90625 L 6.453125 -6.90625 C 6.285156 -6.457031 5.921875 -5.445312 5.359375 -3.875 C 4.929688 -2.6875 4.578125 -1.71875 4.296875 -0.96875 C 3.628906 0.789062 3.15625 1.863281 2.875 2.25 C 2.601562 2.632812 2.132812 2.828125 1.46875 2.828125 C 1.300781 2.828125 1.171875 2.820312 1.078125 2.8125 C 0.992188 2.800781 0.890625 2.773438 0.765625 2.734375 L 0.765625 1.6875 C 0.960938 1.738281 1.101562 1.769531 1.1875 1.78125 C 1.28125 1.800781 1.363281 1.8125 1.4375 1.8125 C 1.65625 1.8125 1.8125 1.773438 1.90625 1.703125 C 2.007812 1.628906 2.097656 1.539062 2.171875 1.4375 C 2.191406 1.40625 2.265625 1.226562 2.390625 0.90625 C 2.523438 0.59375 2.625 0.359375 2.6875 0.203125 L 0.140625 -6.90625 L 1.453125 -6.90625 L 3.296875 -1.28125 Z M 3.296875 -7.078125 Z M 3.296875 -7.078125 "/>
</g>
<g id="glyph-3-4">
<path d="M 3.71875 -7.0625 C 4.21875 -7.0625 4.695312 -6.945312 5.15625 -6.71875 C 5.613281 -6.488281 5.960938 -6.191406 6.203125 -5.828125 C 6.429688 -5.472656 6.585938 -5.066406 6.671875 -4.609375 C 6.734375 -4.285156 6.765625 -3.773438 6.765625 -3.078125 L 1.703125 -3.078125 C 1.722656 -2.378906 1.890625 -1.816406 2.203125 -1.390625 C 2.515625 -0.972656 2.992188 -0.765625 3.640625 -0.765625 C 4.242188 -0.765625 4.726562 -0.960938 5.09375 -1.359375 C 5.300781 -1.585938 5.445312 -1.859375 5.53125 -2.171875 L 6.671875 -2.171875 C 6.640625 -1.910156 6.539062 -1.625 6.375 -1.3125 C 6.207031 -1 6.015625 -0.742188 5.796875 -0.546875 C 5.453125 -0.203125 5.019531 0.0234375 4.5 0.140625 C 4.21875 0.210938 3.898438 0.25 3.546875 0.25 C 2.679688 0.25 1.953125 -0.0625 1.359375 -0.6875 C 0.765625 -1.3125 0.46875 -2.1875 0.46875 -3.3125 C 0.46875 -4.425781 0.765625 -5.328125 1.359375 -6.015625 C 1.960938 -6.710938 2.75 -7.0625 3.71875 -7.0625 Z M 5.578125 -4 C 5.523438 -4.5 5.414062 -4.898438 5.25 -5.203125 C 4.925781 -5.765625 4.394531 -6.046875 3.65625 -6.046875 C 3.125 -6.046875 2.675781 -5.851562 2.3125 -5.46875 C 1.945312 -5.082031 1.753906 -4.59375 1.734375 -4 Z M 3.609375 -7.078125 Z M 3.609375 -7.078125 "/>
</g>
<g id="glyph-3-5">
<path d="M 0.890625 -6.90625 L 1.984375 -6.90625 L 1.984375 -5.71875 C 2.078125 -5.945312 2.296875 -6.226562 2.640625 -6.5625 C 2.992188 -6.894531 3.40625 -7.0625 3.875 -7.0625 C 3.894531 -7.0625 3.929688 -7.054688 3.984375 -7.046875 C 4.035156 -7.046875 4.117188 -7.039062 4.234375 -7.03125 L 4.234375 -5.796875 C 4.171875 -5.816406 4.109375 -5.828125 4.046875 -5.828125 C 3.992188 -5.828125 3.929688 -5.828125 3.859375 -5.828125 C 3.273438 -5.828125 2.828125 -5.640625 2.515625 -5.265625 C 2.203125 -4.890625 2.046875 -4.457031 2.046875 -3.96875 L 2.046875 0 L 0.890625 0 Z M 0.890625 -6.90625 "/>
</g>
<g id="glyph-3-6">
</g>
<g id="glyph-3-7">
<path d="M 3.28125 -7.03125 C 3.820312 -7.03125 4.296875 -6.894531 4.703125 -6.625 C 4.921875 -6.476562 5.144531 -6.257812 5.375 -5.96875 L 5.375 -6.84375 L 6.453125 -6.84375 L 6.453125 -0.5625 C 6.453125 0.308594 6.320312 1.003906 6.0625 1.515625 C 5.582031 2.453125 4.671875 2.921875 3.328125 2.921875 C 2.585938 2.921875 1.960938 2.753906 1.453125 2.421875 C 0.953125 2.085938 0.671875 1.566406 0.609375 0.859375 L 1.78125 0.859375 C 1.84375 1.171875 1.957031 1.410156 2.125 1.578125 C 2.382812 1.828125 2.796875 1.953125 3.359375 1.953125 C 4.242188 1.953125 4.828125 1.640625 5.109375 1.015625 C 5.265625 0.648438 5.335938 -0.00390625 5.328125 -0.953125 C 5.097656 -0.609375 4.816406 -0.347656 4.484375 -0.171875 C 4.160156 -0.00390625 3.734375 0.078125 3.203125 0.078125 C 2.453125 0.078125 1.796875 -0.1875 1.234375 -0.71875 C 0.671875 -1.25 0.390625 -2.125 0.390625 -3.34375 C 0.390625 -4.5 0.671875 -5.398438 1.234375 -6.046875 C 1.804688 -6.703125 2.488281 -7.03125 3.28125 -7.03125 Z M 5.375 -3.484375 C 5.375 -4.335938 5.195312 -4.96875 4.84375 -5.375 C 4.488281 -5.789062 4.039062 -6 3.5 -6 C 2.6875 -6 2.128906 -5.617188 1.828125 -4.859375 C 1.660156 -4.441406 1.578125 -3.90625 1.578125 -3.25 C 1.578125 -2.46875 1.734375 -1.875 2.046875 -1.46875 C 2.367188 -1.0625 2.796875 -0.859375 3.328125 -0.859375 C 4.160156 -0.859375 4.75 -1.234375 5.09375 -1.984375 C 5.28125 -2.410156 5.375 -2.910156 5.375 -3.484375 Z M 3.421875 -7.078125 Z M 3.421875 -7.078125 "/>
</g>
<g id="glyph-3-8">
<path d="M 0.84375 -6.875 L 2.03125 -6.875 L 2.03125 0 L 0.84375 0 Z M 0.84375 -9.46875 L 2.03125 -9.46875 L 2.03125 -8.15625 L 0.84375 -8.15625 Z M 0.84375 -9.46875 "/>
</g>
<g id="glyph-3-9">
<path d="M 3.59375 -0.75 C 4.363281 -0.75 4.890625 -1.039062 5.171875 -1.625 C 5.460938 -2.207031 5.609375 -2.851562 5.609375 -3.5625 C 5.609375 -4.207031 5.503906 -4.734375 5.296875 -5.140625 C 4.960938 -5.773438 4.398438 -6.09375 3.609375 -6.09375 C 2.898438 -6.09375 2.382812 -5.820312 2.0625 -5.28125 C 1.738281 -4.738281 1.578125 -4.082031 1.578125 -3.3125 C 1.578125 -2.582031 1.738281 -1.972656 2.0625 -1.484375 C 2.382812 -0.992188 2.894531 -0.75 3.59375 -0.75 Z M 3.640625 -7.109375 C 4.523438 -7.109375 5.273438 -6.8125 5.890625 -6.21875 C 6.503906 -5.625 6.8125 -4.75 6.8125 -3.59375 C 6.8125 -2.476562 6.539062 -1.554688 6 -0.828125 C 5.457031 -0.109375 4.617188 0.25 3.484375 0.25 C 2.535156 0.25 1.78125 -0.0664062 1.21875 -0.703125 C 0.65625 -1.347656 0.375 -2.210938 0.375 -3.296875 C 0.375 -4.460938 0.664062 -5.390625 1.25 -6.078125 C 1.84375 -6.765625 2.640625 -7.109375 3.640625 -7.109375 Z M 3.59375 -7.078125 Z M 3.59375 -7.078125 "/>
</g>
<g id="glyph-3-10">
<path d="M 0.84375 -6.90625 L 1.953125 -6.90625 L 1.953125 -5.921875 C 2.273438 -6.328125 2.617188 -6.617188 2.984375 -6.796875 C 3.359375 -6.972656 3.765625 -7.0625 4.203125 -7.0625 C 5.179688 -7.0625 5.847656 -6.71875 6.203125 -6.03125 C 6.390625 -5.65625 6.484375 -5.117188 6.484375 -4.421875 L 6.484375 0 L 5.296875 0 L 5.296875 -4.359375 C 5.296875 -4.773438 5.234375 -5.113281 5.109375 -5.375 C 4.898438 -5.800781 4.523438 -6.015625 3.984375 -6.015625 C 3.710938 -6.015625 3.488281 -5.988281 3.3125 -5.9375 C 3 -5.84375 2.71875 -5.648438 2.46875 -5.359375 C 2.28125 -5.128906 2.15625 -4.894531 2.09375 -4.65625 C 2.039062 -4.414062 2.015625 -4.066406 2.015625 -3.609375 L 2.015625 0 L 0.84375 0 Z M 3.578125 -7.078125 Z M 3.578125 -7.078125 "/>
</g>
<g id="glyph-3-11">
<path d="M 1.734375 -1.84375 C 1.734375 -1.5 1.851562 -1.226562 2.09375 -1.03125 C 2.34375 -0.84375 2.640625 -0.75 2.984375 -0.75 C 3.390625 -0.75 3.785156 -0.84375 4.171875 -1.03125 C 4.804688 -1.351562 5.125 -1.867188 5.125 -2.578125 L 5.125 -3.515625 C 4.988281 -3.421875 4.804688 -3.34375 4.578125 -3.28125 C 4.359375 -3.226562 4.140625 -3.1875 3.921875 -3.15625 L 3.21875 -3.0625 C 2.800781 -3.007812 2.488281 -2.921875 2.28125 -2.796875 C 1.914062 -2.597656 1.734375 -2.28125 1.734375 -1.84375 Z M 4.546875 -4.1875 C 4.816406 -4.21875 5 -4.328125 5.09375 -4.515625 C 5.132812 -4.617188 5.15625 -4.769531 5.15625 -4.96875 C 5.15625 -5.363281 5.015625 -5.648438 4.734375 -5.828125 C 4.453125 -6.003906 4.050781 -6.09375 3.53125 -6.09375 C 2.925781 -6.09375 2.5 -5.929688 2.25 -5.609375 C 2.101562 -5.421875 2.007812 -5.148438 1.96875 -4.796875 L 0.890625 -4.796875 C 0.910156 -5.648438 1.1875 -6.242188 1.71875 -6.578125 C 2.25 -6.910156 2.863281 -7.078125 3.5625 -7.078125 C 4.375 -7.078125 5.03125 -6.921875 5.53125 -6.609375 C 6.039062 -6.296875 6.296875 -5.8125 6.296875 -5.15625 L 6.296875 -1.1875 C 6.296875 -1.0625 6.316406 -0.960938 6.359375 -0.890625 C 6.410156 -0.816406 6.515625 -0.78125 6.671875 -0.78125 C 6.722656 -0.78125 6.78125 -0.785156 6.84375 -0.796875 C 6.914062 -0.804688 6.988281 -0.816406 7.0625 -0.828125 L 7.0625 0.03125 C 6.875 0.0820312 6.734375 0.113281 6.640625 0.125 C 6.546875 0.132812 6.421875 0.140625 6.265625 0.140625 C 5.859375 0.140625 5.566406 0 5.390625 -0.28125 C 5.296875 -0.425781 5.226562 -0.640625 5.1875 -0.921875 C 4.945312 -0.609375 4.601562 -0.335938 4.15625 -0.109375 C 3.71875 0.117188 3.234375 0.234375 2.703125 0.234375 C 2.066406 0.234375 1.546875 0.0390625 1.140625 -0.34375 C 0.734375 -0.738281 0.53125 -1.226562 0.53125 -1.8125 C 0.53125 -2.445312 0.726562 -2.941406 1.125 -3.296875 C 1.53125 -3.648438 2.054688 -3.867188 2.703125 -3.953125 Z M 3.59375 -7.078125 Z M 3.59375 -7.078125 "/>
</g>
<g id="glyph-3-12">
<path d="M 0.890625 -9.46875 L 2.046875 -9.46875 L 2.046875 0 L 0.890625 0 Z M 0.890625 -9.46875 "/>
</g>
<g id="glyph-3-13">
<path d="M 2.015625 -6.90625 L 2.015625 -2.328125 C 2.015625 -1.972656 2.066406 -1.679688 2.171875 -1.453125 C 2.378906 -1.046875 2.765625 -0.84375 3.328125 -0.84375 C 4.140625 -0.84375 4.691406 -1.203125 4.984375 -1.921875 C 5.140625 -2.304688 5.21875 -2.835938 5.21875 -3.515625 L 5.21875 -6.90625 L 6.375 -6.90625 L 6.375 0 L 5.28125 0 L 5.296875 -1.015625 C 5.148438 -0.753906 4.960938 -0.535156 4.734375 -0.359375 C 4.296875 0.00390625 3.757812 0.1875 3.125 0.1875 C 2.144531 0.1875 1.472656 -0.140625 1.109375 -0.796875 C 0.921875 -1.148438 0.828125 -1.625 0.828125 -2.21875 L 0.828125 -6.90625 Z M 3.609375 -7.078125 Z M 3.609375 -7.078125 "/>
</g>
<g id="glyph-3-14">
<path d="M 0.828125 -9.46875 L 1.9375 -9.46875 L 1.9375 -3.96875 L 4.921875 -6.90625 L 6.40625 -6.90625 L 3.765625 -4.3125 L 6.546875 0 L 5.0625 0 L 2.90625 -3.484375 L 1.9375 -2.59375 L 1.9375 0 L 0.828125 0 Z M 0.828125 -9.46875 "/>
</g>
<g id="glyph-3-15">
<path d="M 0.84375 -9.5 L 2.015625 -9.5 L 2.015625 -5.96875 C 2.285156 -6.3125 2.53125 -6.554688 2.75 -6.703125 C 3.125 -6.953125 3.59375 -7.078125 4.15625 -7.078125 C 5.15625 -7.078125 5.832031 -6.722656 6.1875 -6.015625 C 6.382812 -5.640625 6.484375 -5.109375 6.484375 -4.421875 L 6.484375 0 L 5.28125 0 L 5.28125 -4.359375 C 5.28125 -4.859375 5.21875 -5.226562 5.09375 -5.46875 C 4.882812 -5.84375 4.488281 -6.03125 3.90625 -6.03125 C 3.425781 -6.03125 2.988281 -5.863281 2.59375 -5.53125 C 2.207031 -5.207031 2.015625 -4.582031 2.015625 -3.65625 L 2.015625 0 L 0.84375 0 Z M 0.84375 -9.5 "/>
</g>
<g id="glyph-3-16">
<path d="M 1.078125 -8.828125 L 2.25 -8.828125 L 2.25 -6.90625 L 3.359375 -6.90625 L 3.359375 -5.953125 L 2.25 -5.953125 L 2.25 -1.453125 C 2.25 -1.210938 2.332031 -1.050781 2.5 -0.96875 C 2.59375 -0.914062 2.742188 -0.890625 2.953125 -0.890625 C 3.003906 -0.890625 3.0625 -0.890625 3.125 -0.890625 C 3.195312 -0.898438 3.273438 -0.910156 3.359375 -0.921875 L 3.359375 0 C 3.222656 0.0390625 3.082031 0.0664062 2.9375 0.078125 C 2.800781 0.0976562 2.644531 0.109375 2.46875 0.109375 C 1.925781 0.109375 1.554688 -0.0234375 1.359375 -0.296875 C 1.171875 -0.578125 1.078125 -0.941406 1.078125 -1.390625 L 1.078125 -5.953125 L 0.140625 -5.953125 L 0.140625 -6.90625 L 1.078125 -6.90625 Z M 1.078125 -8.828125 "/>
</g>
</g>
<clipPath id="clip-0">
<path clip-rule="nonzero" d="M 36.152344 186 L 309.84375 186 L 309.84375 187 L 36.152344 187 Z M 36.152344 186 "/>
</clipPath>
<clipPath id="clip-1">
<path clip-rule="nonzero" d="M 36.152344 124 L 309.84375 124 L 309.84375 125 L 36.152344 125 Z M 36.152344 124 "/>
</clipPath>
<clipPath id="clip-2">
<path clip-rule="nonzero" d="M 36.152344 62 L 309.84375 62 L 309.84375 64 L 36.152344 64 Z M 36.152344 62 "/>
</clipPath>
<clipPath id="clip-3">
<path clip-rule="nonzero" d="M 76 23.957031 L 78 23.957031 L 78 218.847656 L 76 218.847656 Z M 76 23.957031 "/>
</clipPath>
<clipPath id="clip-4">
<path clip-rule="nonzero" d="M 133 23.957031 L 134 23.957031 L 134 218.847656 L 133 218.847656 Z M 133 23.957031 "/>
</clipPath>
<clipPath id="clip-5">
<path clip-rule="nonzero" d="M 189 23.957031 L 191 23.957031 L 191 218.847656 L 189 218.847656 Z M 189 23.957031 "/>
</clipPath>
<clipPath id="clip-6">
<path clip-rule="nonzero" d="M 246 23.957031 L 247 23.957031 L 247 218.847656 L 246 218.847656 Z M 246 23.957031 "/>
</clipPath>
<clipPath id="clip-7">
<path clip-rule="nonzero" d="M 302 23.957031 L 304 23.957031 L 304 218.847656 L 302 218.847656 Z M 302 23.957031 "/>
</clipPath>
<clipPath id="clip-8">
<path clip-rule="nonzero" d="M 36.152344 216 L 309.84375 216 L 309.84375 218 L 36.152344 218 Z M 36.152344 216 "/>
</clipPath>
<clipPath id="clip-9">
<path clip-rule="nonzero" d="M 36.152344 155 L 309.84375 155 L 309.84375 157 L 36.152344 157 Z M 36.152344 155 "/>
</clipPath>
<clipPath id="clip-10">
<path clip-rule="nonzero" d="M 36.152344 93 L 309.84375 93 L 309.84375 95 L 36.152344 95 Z M 36.152344 93 "/>
</clipPath>
<clipPath id="clip-11">
<path clip-rule="nonzero" d="M 36.152344 31 L 309.84375 31 L 309.84375 33 L 36.152344 33 Z M 36.152344 31 "/>
</clipPath>
<clipPath id="clip-12">
<path clip-rule="nonzero" d="M 48 23.957031 L 50 23.957031 L 50 218.847656 L 48 218.847656 Z M 48 23.957031 "/>
</clipPath>
<clipPath id="clip-13">
<path clip-rule="nonzero" d="M 104 23.957031 L 106 23.957031 L 106 218.847656 L 104 218.847656 Z M 104 23.957031 "/>
</clipPath>
<clipPath id="clip-14">
<path clip-rule="nonzero" d="M 161 23.957031 L 163 23.957031 L 163 218.847656 L 161 218.847656 Z M 161 23.957031 "/>
</clipPath>
<clipPath id="clip-15">
<path clip-rule="nonzero" d="M 217 23.957031 L 219 23.957031 L 219 218.847656 L 217 218.847656 Z M 217 23.957031 "/>
</clipPath>
<clipPath id="clip-16">
<path clip-rule="nonzero" d="M 274 23.957031 L 276 23.957031 L 276 218.847656 L 274 218.847656 Z M 274 23.957031 "/>
</clipPath>
</defs>
<rect x="-39.6" y="-25.2" width="475.2" height="302.4" fill="rgb(100%, 100%, 100%)" fill-opacity="1"/>
<rect x="-39.6" y="-25.2" width="475.2" height="302.4" fill="rgb(100%, 100%, 100%)" fill-opacity="1"/>
<g clip-path="url(#clip-0)">
<path fill="none" stroke-width="0.533489" stroke-linecap="butt" stroke-linejoin="round" stroke="rgb(92.156863%, 92.156863%, 92.156863%)" stroke-opacity="1" stroke-miterlimit="10" d="M 36.152344 186.359375 L 309.84375 186.359375 "/>
</g>
<g clip-path="url(#clip-1)">
<path fill="none" stroke-width="0.533489" stroke-linecap="butt" stroke-linejoin="round" stroke="rgb(92.156863%, 92.156863%, 92.156863%)" stroke-opacity="1" stroke-miterlimit="10" d="M 36.152344 124.714844 L 309.84375 124.714844 "/>
</g>
<g clip-path="url(#clip-2)">
<path fill="none" stroke-width="0.533489" stroke-linecap="butt" stroke-linejoin="round" stroke="rgb(92.156863%, 92.156863%, 92.156863%)" stroke-opacity="1" stroke-miterlimit="10" d="M 36.152344 63.066406 L 309.84375 63.066406 "/>
</g>
<g clip-path="url(#clip-3)">
<path fill="none" stroke-width="0.533489" stroke-linecap="butt" stroke-linejoin="round" stroke="rgb(92.156863%, 92.156863%, 92.156863%)" stroke-opacity="1" stroke-miterlimit="10" d="M 76.867188 218.847656 L 76.867188 23.957031 "/>
</g>
<g clip-path="url(#clip-4)">
<path fill="none" stroke-width="0.533489" stroke-linecap="butt" stroke-linejoin="round" stroke="rgb(92.156863%, 92.156863%, 92.156863%)" stroke-opacity="1" stroke-miterlimit="10" d="M 133.414062 218.847656 L 133.414062 23.957031 "/>
</g>
<g clip-path="url(#clip-5)">
<path fill="none" stroke-width="0.533489" stroke-linecap="butt" stroke-linejoin="round" stroke="rgb(92.156863%, 92.156863%, 92.156863%)" stroke-opacity="1" stroke-miterlimit="10" d="M 189.960938 218.847656 L 189.960938 23.957031 "/>
</g>
<g clip-path="url(#clip-6)">
<path fill="none" stroke-width="0.533489" stroke-linecap="butt" stroke-linejoin="round" stroke="rgb(92.156863%, 92.156863%, 92.156863%)" stroke-opacity="1" stroke-miterlimit="10" d="M 246.507812 218.847656 L 246.507812 23.957031 "/>
</g>
<g clip-path="url(#clip-7)">
<path fill="none" stroke-width="0.533489" stroke-linecap="butt" stroke-linejoin="round" stroke="rgb(92.156863%, 92.156863%, 92.156863%)" stroke-opacity="1" stroke-miterlimit="10" d="M 303.058594 218.847656 L 303.058594 23.957031 "/>
</g>
<g clip-path="url(#clip-8)">
<path fill="none" stroke-width="1.066978" stroke-linecap="butt" stroke-linejoin="round" stroke="rgb(92.156863%, 92.156863%, 92.156863%)" stroke-opacity="1" stroke-miterlimit="10" d="M 36.152344 217.183594 L 309.84375 217.183594 "/>
</g>
<g clip-path="url(#clip-9)">
<path fill="none" stroke-width="1.066978" stroke-linecap="butt" stroke-linejoin="round" stroke="rgb(92.156863%, 92.156863%, 92.156863%)" stroke-opacity="1" stroke-miterlimit="10" d="M 36.152344 155.535156 L 309.84375 155.535156 "/>
</g>
<g clip-path="url(#clip-10)">
<path fill="none" stroke-width="1.066978" stroke-linecap="butt" stroke-linejoin="round" stroke="rgb(92.156863%, 92.156863%, 92.156863%)" stroke-opacity="1" stroke-miterlimit="10" d="M 36.152344 93.890625 L 309.84375 93.890625 "/>
</g>
<g clip-path="url(#clip-11)">
<path fill="none" stroke-width="1.066978" stroke-linecap="butt" stroke-linejoin="round" stroke="rgb(92.156863%, 92.156863%, 92.156863%)" stroke-opacity="1" stroke-miterlimit="10" d="M 36.152344 32.246094 L 309.84375 32.246094 "/>
</g>
<g clip-path="url(#clip-12)">
<path fill="none" stroke-width="1.066978" stroke-linecap="butt" stroke-linejoin="round" stroke="rgb(92.156863%, 92.156863%, 92.156863%)" stroke-opacity="1" stroke-miterlimit="10" d="M 48.589844 218.847656 L 48.589844 23.957031 "/>
</g>
<g clip-path="url(#clip-13)">
<path fill="none" stroke-width="1.066978" stroke-linecap="butt" stroke-linejoin="round" stroke="rgb(92.156863%, 92.156863%, 92.156863%)" stroke-opacity="1" stroke-miterlimit="10" d="M 105.140625 218.847656 L 105.140625 23.957031 "/>
</g>
<g clip-path="url(#clip-14)">
<path fill="none" stroke-width="1.066978" stroke-linecap="butt" stroke-linejoin="round" stroke="rgb(92.156863%, 92.156863%, 92.156863%)" stroke-opacity="1" stroke-miterlimit="10" d="M 161.6875 218.847656 L 161.6875 23.957031 "/>
</g>
<g clip-path="url(#clip-15)">
<path fill="none" stroke-width="1.066978" stroke-linecap="butt" stroke-linejoin="round" stroke="rgb(92.156863%, 92.156863%, 92.156863%)" stroke-opacity="1" stroke-miterlimit="10" d="M 218.234375 218.847656 L 218.234375 23.957031 "/>
</g>
<g clip-path="url(#clip-16)">
<path fill="none" stroke-width="1.066978" stroke-linecap="butt" stroke-linejoin="round" stroke="rgb(92.156863%, 92.156863%, 92.156863%)" stroke-opacity="1" stroke-miterlimit="10" d="M 274.785156 218.847656 L 274.785156 23.957031 "/>
</g>
<path fill="none" stroke-width="1.066978" stroke-linecap="butt" stroke-linejoin="round" stroke="rgb(97.254902%, 46.27451%, 42.745098%)" stroke-opacity="1" stroke-miterlimit="10" d="M 48.589844 160.074219 L 59.902344 157.171875 L 71.210938 152.441406 L 82.519531 150.824219 L 93.828125 148.179688 L 105.140625 140.210938 L 116.449219 119.554688 L 127.757812 104.097656 L 139.066406 98.125 L 150.378906 90.011719 L 161.6875 85.484375 L 172.996094 92.632812 L 184.304688 94.726562 L 195.617188 87.300781 L 206.925781 86.953125 L 218.234375 86.953125 L 229.546875 84.65625 L 240.855469 88.542969 L 252.164062 90.824219 L 263.472656 82.914062 L 274.785156 88.058594 L 286.09375 89.453125 L 297.402344 83.25 "/>
<path fill="none" stroke-width="1.066978" stroke-linecap="butt" stroke-linejoin="round" stroke="rgb(90.196078%, 52.54902%, 7.45098%)" stroke-opacity="1" stroke-miterlimit="10" d="M 48.589844 195.039062 L 59.902344 194.960938 L 71.210938 198.679688 L 82.519531 198.585938 L 93.828125 194.007812 L 105.140625 188.757812 L 116.449219 193.488281 L 127.757812 191.820312 L 139.066406 188.84375 L 150.378906 188.902344 L 161.6875 179.582031 L 172.996094 181.460938 L 184.304688 180.550781 L 195.617188 177.671875 L 206.925781 174.492188 L 218.234375 175.984375 L 229.546875 175.679688 L 240.855469 174.628906 L 252.164062 174.746094 L 263.472656 178.363281 L 274.785156 178.863281 L 286.09375 167.296875 L 297.402344 141.816406 "/>
<path fill="none" stroke-width="1.066978" stroke-linecap="butt" stroke-linejoin="round" stroke="rgb(80.392157%, 58.823529%, 0%)" stroke-opacity="1" stroke-miterlimit="10" d="M 48.589844 164.191406 L 59.902344 164.632812 L 71.210938 166.605469 L 82.519531 167.945312 L 93.828125 169.597656 L 105.140625 168.296875 L 116.449219 168.710938 L 127.757812 167.117188 L 139.066406 164.207031 L 150.378906 164.453125 L 161.6875 155.972656 L 172.996094 159.304688 L 184.304688 156.390625 L 195.617188 155.066406 L 206.925781 154.828125 L 218.234375 153.820312 L 229.546875 151.929688 L 240.855469 151.742188 L 252.164062 148.785156 L 263.472656 147.003906 L 274.785156 153.117188 L 286.09375 154.40625 L 297.402344 151.683594 "/>
<path fill="none" stroke-width="1.066978" stroke-linecap="butt" stroke-linejoin="round" stroke="rgb(67.058824%, 63.921569%, 0%)" stroke-opacity="1" stroke-miterlimit="10" d="M 48.589844 175.894531 L 59.902344 176.777344 L 71.210938 173.976562 L 82.519531 172.519531 L 93.828125 170.832031 L 105.140625 168.285156 L 116.449219 162.375 L 127.757812 163.050781 L 139.066406 161.300781 L 150.378906 158.285156 L 161.6875 158.113281 L 172.996094 156.285156 L 184.304688 158.765625 L 195.617188 156.625 L 206.925781 155.121094 L 218.234375 155.96875 L 229.546875 154.757812 L 240.855469 151.835938 L 252.164062 152.117188 L 263.472656 149.816406 L 274.785156 148.773438 L 286.09375 147.785156 L 297.402344 150.769531 "/>
<path fill="none" stroke-width="1.066978" stroke-linecap="butt" stroke-linejoin="round" stroke="rgb(48.627451%, 68.235294%, 0%)" stroke-opacity="1" stroke-miterlimit="10" d="M 48.589844 133.550781 L 59.902344 135.183594 L 71.210938 135.351562 L 82.519531 127.410156 L 93.828125 121.894531 L 105.140625 120.648438 L 116.449219 116.832031 L 127.757812 110.84375 L 139.066406 119.511719 L 150.378906 101.53125 L 161.6875 83.214844 L 172.996094 88.425781 L 184.304688 85.910156 L 195.617188 65.992188 L 206.925781 56.117188 L 218.234375 48.898438 L 229.546875 61.015625 L 240.855469 65.121094 L 252.164062 45.683594 L 263.472656 58.738281 L 274.785156 58.082031 L 286.09375 41.929688 L 297.402344 32.816406 "/>
<path fill="none" stroke-width="1.066978" stroke-linecap="butt" stroke-linejoin="round" stroke="rgb(4.313725%, 71.764706%, 0.784314%)" stroke-opacity="1" stroke-miterlimit="10" d="M 48.589844 168.832031 L 59.902344 169.5 L 71.210938 169.597656 L 82.519531 170.421875 L 93.828125 170.421875 L 105.140625 171.152344 L 116.449219 172.566406 L 127.757812 171.742188 L 139.066406 166.851562 L 150.378906 167.675781 L 161.6875 165.058594 L 172.996094 164.125 L 184.304688 166.691406 L 195.617188 166.703125 L 206.925781 165.128906 L 218.234375 166.191406 L 229.546875 163.351562 L 240.855469 163.851562 L 252.164062 163.09375 L 263.472656 163.421875 L 274.785156 165.089844 L 286.09375 161.910156 L 297.402344 161.222656 "/>
<path fill="none" stroke-width="1.066978" stroke-linecap="butt" stroke-linejoin="round" stroke="rgb(0%, 74.509804%, 40.392157%)" stroke-opacity="1" stroke-miterlimit="10" d="M 48.589844 159.285156 L 59.902344 155.21875 L 71.210938 160.050781 L 82.519531 154.90625 L 93.828125 153.214844 L 105.140625 147.054688 L 116.449219 146.382812 L 127.757812 146.585938 L 139.066406 147.390625 L 150.378906 141.394531 L 161.6875 126.847656 L 172.996094 129.792969 L 184.304688 129.367188 L 195.617188 134.191406 L 206.925781 132.417969 L 218.234375 129.40625 L 229.546875 129.160156 L 240.855469 126.230469 L 252.164062 124.390625 L 263.472656 137.023438 L 274.785156 144.574219 L 286.09375 147.210938 L 297.402344 150.273438 "/>
<path fill="none" stroke-width="1.066978" stroke-linecap="butt" stroke-linejoin="round" stroke="rgb(0%, 75.686275%, 60.392157%)" stroke-opacity="1" stroke-miterlimit="10" d="M 48.589844 183.277344 L 59.902344 174.265625 L 71.210938 163.914062 L 82.519531 163.75 L 93.828125 165.6875 L 105.140625 159.238281 L 116.449219 149.21875 L 127.757812 142.09375 L 139.066406 151.257812 L 150.378906 149.28125 L 161.6875 154.039062 L 172.996094 161.742188 L 184.304688 159.195312 L 195.617188 153.980469 L 206.925781 151.167969 L 218.234375 149.40625 L 229.546875 147.296875 L 240.855469 150.273438 L 252.164062 144.085938 L 263.472656 139.273438 L 274.785156 141.832031 L 286.09375 138.257812 L 297.402344 139.546875 "/>
<path fill="none" stroke-width="1.066978" stroke-linecap="butt" stroke-linejoin="round" stroke="rgb(0%, 74.901961%, 76.862745%)" stroke-opacity="1" stroke-miterlimit="10" d="M 48.589844 182.9375 L 59.902344 186.304688 L 71.210938 183.558594 L 82.519531 163.316406 L 93.828125 155.953125 L 105.140625 163 L 116.449219 160.945312 L 127.757812 149.871094 L 139.066406 147.671875 L 150.378906 171.785156 L 161.6875 146.875 L 172.996094 148.402344 L 184.304688 139.757812 L 195.617188 138.191406 L 206.925781 135.9375 L 218.234375 132.539062 L 229.546875 134.574219 L 240.855469 128.746094 L 252.164062 133.269531 L 263.472656 142.417969 L 274.785156 135.667969 L 286.09375 128.542969 L 297.402344 137.40625 "/>
<path fill="none" stroke-width="1.066978" stroke-linecap="butt" stroke-linejoin="round" stroke="rgb(0%, 72.156863%, 90.588235%)" stroke-opacity="1" stroke-miterlimit="10" d="M 48.589844 146.660156 L 59.902344 150.664062 L 71.210938 149.070312 L 82.519531 149.75 L 93.828125 145.632812 L 105.140625 143.886719 L 116.449219 141.78125 L 127.757812 140.492188 L 139.066406 143.574219 L 150.378906 139.585938 L 161.6875 137.398438 L 172.996094 138.738281 L 184.304688 136.40625 L 195.617188 136.382812 L 206.925781 140.066406 L 218.234375 137.992188 L 229.546875 137.554688 L 240.855469 136.847656 L 252.164062 133.472656 L 263.472656 131.558594 L 274.785156 143.320312 L 286.09375 139.972656 L 297.402344 136.875 "/>
<path fill="none" stroke-width="1.066978" stroke-linecap="butt" stroke-linejoin="round" stroke="rgb(0%, 66.27451%, 100%)" stroke-opacity="1" stroke-miterlimit="10" d="M 48.589844 143.335938 L 59.902344 153.785156 L 71.210938 141.089844 L 82.519531 143.347656 L 93.828125 146.082031 L 105.140625 122.265625 L 116.449219 124.625 L 127.757812 120.207031 L 139.066406 113.003906 L 150.378906 118.183594 L 161.6875 115.945312 L 172.996094 101.832031 L 184.304688 113.839844 L 195.617188 111.875 L 206.925781 108.121094 L 218.234375 106.746094 L 229.546875 106.042969 L 240.855469 110.960938 L 252.164062 117.484375 L 263.472656 114.441406 L 274.785156 115.851562 L 286.09375 109.742188 L 297.402344 94.007812 "/>
<path fill="none" stroke-width="1.066978" stroke-linecap="butt" stroke-linejoin="round" stroke="rgb(51.764706%, 58.039216%, 100%)" stroke-opacity="1" stroke-miterlimit="10" d="M 48.589844 182.539062 L 59.902344 167.859375 L 71.210938 148.632812 L 82.519531 138.554688 L 93.828125 117.816406 L 105.140625 111.480469 L 116.449219 106.992188 L 127.757812 94.910156 L 139.066406 95.039062 L 150.378906 100.460938 L 161.6875 98.21875 L 172.996094 111.222656 L 184.304688 105.375 L 195.617188 102.386719 L 206.925781 112.382812 L 218.234375 110.308594 L 229.546875 108.625 L 240.855469 109.21875 L 252.164062 106.722656 L 263.472656 101.703125 L 274.785156 102.648438 L 286.09375 114.5625 L 297.402344 116.242188 "/>
<path fill="none" stroke-width="1.066978" stroke-linecap="butt" stroke-linejoin="round" stroke="rgb(78.039216%, 48.627451%, 100%)" stroke-opacity="1" stroke-miterlimit="10" d="M 48.589844 191.730469 L 59.902344 188.050781 L 71.210938 187.476562 L 82.519531 176.476562 L 93.828125 176.777344 L 105.140625 176.058594 L 116.449219 171.464844 L 127.757812 172.023438 L 139.066406 173.375 L 150.378906 167.285156 L 161.6875 168.867188 L 172.996094 172.667969 L 184.304688 172.949219 L 195.617188 175.085938 L 206.925781 176.929688 L 218.234375 178.097656 L 229.546875 176.90625 L 240.855469 176.386719 L 252.164062 175.480469 L 263.472656 176.269531 L 274.785156 171.851562 L 286.09375 168.59375 L 297.402344 174.605469 "/>
<path fill="none" stroke-width="1.066978" stroke-linecap="butt" stroke-linejoin="round" stroke="rgb(92.941176%, 40.784314%, 92.941176%)" stroke-opacity="1" stroke-miterlimit="10" d="M 48.589844 204.035156 L 59.902344 206.546875 L 71.210938 208.824219 L 82.519531 209.992188 L 93.828125 207.851562 L 105.140625 205.972656 L 116.449219 208.457031 L 127.757812 205.398438 L 139.066406 205.554688 L 150.378906 195.65625 L 161.6875 204.429688 L 172.996094 201.796875 L 184.304688 202.277344 L 195.617188 201.578125 L 206.925781 198.605469 L 218.234375 194.707031 L 229.546875 196.417969 L 240.855469 200.875 L 252.164062 200.304688 L 263.472656 197.328125 L 274.785156 197.777344 L 286.09375 198.847656 L 297.402344 200.921875 "/>
<path fill="none" stroke-width="1.066978" stroke-linecap="butt" stroke-linejoin="round" stroke="rgb(100%, 38.039216%, 80%)" stroke-opacity="1" stroke-miterlimit="10" d="M 48.589844 182.425781 L 59.902344 179.734375 L 71.210938 170.210938 L 82.519531 168.644531 L 93.828125 168.355469 L 105.140625 168.285156 L 116.449219 165.636719 L 127.757812 158.226562 L 139.066406 158.03125 L 150.378906 161.109375 L 161.6875 157.921875 L 172.996094 163.324219 L 184.304688 162.992188 L 195.617188 159.796875 L 206.925781 161.105469 L 218.234375 160.222656 L 229.546875 158.425781 L 240.855469 159.640625 L 252.164062 155.875 L 263.472656 154.355469 L 274.785156 154.625 L 286.09375 150.5625 L 297.402344 152.425781 "/>
<path fill="none" stroke-width="1.066978" stroke-linecap="butt" stroke-linejoin="round" stroke="rgb(100%, 40.784314%, 63.137255%)" stroke-opacity="1" stroke-miterlimit="10" d="M 48.589844 122.960938 L 59.902344 129.292969 L 71.210938 121.601562 L 82.519531 121.476562 L 93.828125 117.699219 L 105.140625 112.253906 L 116.449219 106.519531 L 127.757812 104.246094 L 139.066406 101.671875 L 150.378906 95.804688 L 161.6875 101.480469 L 172.996094 101.433594 L 184.304688 101.507812 L 195.617188 110.425781 L 206.925781 107.734375 L 218.234375 112.730469 L 229.546875 112.925781 L 240.855469 114.683594 L 252.164062 115.964844 L 263.472656 109.148438 L 274.785156 114.394531 L 286.09375 114.835938 L 297.402344 112.847656 "/>
<g fill="rgb(30.196078%, 30.196078%, 30.196078%)" fill-opacity="1">
<use xlink:href="#glyph-0-1" x="19.21875" y="220.459961"/>
<use xlink:href="#glyph-0-2" x="24.21875" y="220.459961"/>
<use xlink:href="#glyph-0-3" x="26.21875" y="220.459961"/>
</g>
<g fill="rgb(30.196078%, 30.196078%, 30.196078%)" fill-opacity="1">
<use xlink:href="#glyph-0-1" x="19.21875" y="158.811523"/>
<use xlink:href="#glyph-0-2" x="24.21875" y="158.811523"/>
<use xlink:href="#glyph-0-4" x="26.21875" y="158.811523"/>
</g>
<g fill="rgb(30.196078%, 30.196078%, 30.196078%)" fill-opacity="1">
<use xlink:href="#glyph-0-1" x="19.21875" y="97.166992"/>
<use xlink:href="#glyph-0-2" x="24.21875" y="97.166992"/>
<use xlink:href="#glyph-0-5" x="26.21875" y="97.166992"/>
</g>
<g fill="rgb(30.196078%, 30.196078%, 30.196078%)" fill-opacity="1">
<use xlink:href="#glyph-0-1" x="19.21875" y="35.522461"/>
<use xlink:href="#glyph-0-2" x="24.21875" y="35.522461"/>
<use xlink:href="#glyph-0-6" x="26.21875" y="35.522461"/>
</g>
<g fill="rgb(30.196078%, 30.196078%, 30.196078%)" fill-opacity="1">
<use xlink:href="#glyph-0-4" x="38.589844" y="230.557617"/>
<use xlink:href="#glyph-0-1" x="43.589844" y="230.557617"/>
<use xlink:href="#glyph-0-1" x="48.589844" y="230.557617"/>
<use xlink:href="#glyph-0-1" x="53.589844" y="230.557617"/>
</g>
<g fill="rgb(30.196078%, 30.196078%, 30.196078%)" fill-opacity="1">
<use xlink:href="#glyph-0-4" x="95.140625" y="230.557617"/>
<use xlink:href="#glyph-0-1" x="100.140625" y="230.557617"/>
<use xlink:href="#glyph-0-1" x="105.140625" y="230.557617"/>
<use xlink:href="#glyph-0-7" x="110.140625" y="230.557617"/>
</g>
<g fill="rgb(30.196078%, 30.196078%, 30.196078%)" fill-opacity="1">
<use xlink:href="#glyph-0-4" x="151.6875" y="230.557617"/>
<use xlink:href="#glyph-0-1" x="156.6875" y="230.557617"/>
<use xlink:href="#glyph-0-3" x="161.6875" y="230.557617"/>
<use xlink:href="#glyph-0-1" x="166.6875" y="230.557617"/>
</g>
<g fill="rgb(30.196078%, 30.196078%, 30.196078%)" fill-opacity="1">
<use xlink:href="#glyph-0-4" x="208.234375" y="230.557617"/>
<use xlink:href="#glyph-0-1" x="213.234375" y="230.557617"/>
<use xlink:href="#glyph-0-3" x="218.234375" y="230.557617"/>
<use xlink:href="#glyph-0-7" x="223.234375" y="230.557617"/>
</g>
<g fill="rgb(30.196078%, 30.196078%, 30.196078%)" fill-opacity="1">
<use xlink:href="#glyph-0-4" x="264.785156" y="230.557617"/>
<use xlink:href="#glyph-0-1" x="269.785156" y="230.557617"/>
<use xlink:href="#glyph-0-4" x="274.785156" y="230.557617"/>
<use xlink:href="#glyph-0-1" x="279.785156" y="230.557617"/>
</g>
<g fill="rgb(0%, 0%, 0%)" fill-opacity="1">
<use xlink:href="#glyph-1-1" x="161.496094" y="242.990234"/>
<use xlink:href="#glyph-1-2" x="167.496094" y="242.990234"/>
<use xlink:href="#glyph-1-3" x="174.496094" y="242.990234"/>
<use xlink:href="#glyph-1-4" x="180.496094" y="242.990234"/>
</g>
<g fill="rgb(0%, 0%, 0%)" fill-opacity="1">
<use xlink:href="#glyph-2-1" x="12.951172" y="157.902344"/>
<use xlink:href="#glyph-2-2" x="12.951172" y="148.902344"/>
<use xlink:href="#glyph-2-3" x="12.951172" y="146.902344"/>
<use xlink:href="#glyph-2-2" x="12.951172" y="140.902344"/>
<use xlink:href="#glyph-2-4" x="12.951172" y="138.902344"/>
<use xlink:href="#glyph-2-5" x="12.951172" y="134.902344"/>
<use xlink:href="#glyph-2-6" x="12.951172" y="128.902344"/>
<use xlink:href="#glyph-2-7" x="12.951172" y="122.902344"/>
<use xlink:href="#glyph-2-8" x="12.951172" y="116.902344"/>
<use xlink:href="#glyph-2-9" x="12.951172" y="113.902344"/>
<use xlink:href="#glyph-2-10" x="12.951172" y="107.902344"/>
<use xlink:href="#glyph-2-2" x="12.951172" y="101.902344"/>
<use xlink:href="#glyph-2-7" x="12.951172" y="99.902344"/>
<use xlink:href="#glyph-2-3" x="12.951172" y="93.902344"/>
<use xlink:href="#glyph-2-11" x="12.951172" y="87.902344"/>
</g>
<path fill="none" stroke-width="1.066978" stroke-linecap="butt" stroke-linejoin="round" stroke="rgb(97.254902%, 46.27451%, 42.745098%)" stroke-opacity="1" stroke-miterlimit="10" d="M 328.007812 0.0429688 L 341.832031 0.0429688 "/>
<path fill="none" stroke-width="1.066978" stroke-linecap="butt" stroke-linejoin="round" stroke="rgb(90.196078%, 52.54902%, 7.45098%)" stroke-opacity="1" stroke-miterlimit="10" d="M 328.007812 17.324219 L 341.832031 17.324219 "/>
<path fill="none" stroke-width="1.066978" stroke-linecap="butt" stroke-linejoin="round" stroke="rgb(80.392157%, 58.823529%, 0%)" stroke-opacity="1" stroke-miterlimit="10" d="M 328.007812 34.605469 L 341.832031 34.605469 "/>
<path fill="none" stroke-width="1.066978" stroke-linecap="butt" stroke-linejoin="round" stroke="rgb(67.058824%, 63.921569%, 0%)" stroke-opacity="1" stroke-miterlimit="10" d="M 328.007812 51.882812 L 341.832031 51.882812 "/>
<path fill="none" stroke-width="1.066978" stroke-linecap="butt" stroke-linejoin="round" stroke="rgb(48.627451%, 68.235294%, 0%)" stroke-opacity="1" stroke-miterlimit="10" d="M 328.007812 69.164062 L 341.832031 69.164062 "/>
<path fill="none" stroke-width="1.066978" stroke-linecap="butt" stroke-linejoin="round" stroke="rgb(4.313725%, 71.764706%, 0.784314%)" stroke-opacity="1" stroke-miterlimit="10" d="M 328.007812 86.445312 L 341.832031 86.445312 "/>
<path fill="none" stroke-width="1.066978" stroke-linecap="butt" stroke-linejoin="round" stroke="rgb(0%, 74.509804%, 40.392157%)" stroke-opacity="1" stroke-miterlimit="10" d="M 328.007812 103.722656 L 341.832031 103.722656 "/>
<path fill="none" stroke-width="1.066978" stroke-linecap="butt" stroke-linejoin="round" stroke="rgb(0%, 75.686275%, 60.392157%)" stroke-opacity="1" stroke-miterlimit="10" d="M 328.007812 121.003906 L 341.832031 121.003906 "/>
<path fill="none" stroke-width="1.066978" stroke-linecap="butt" stroke-linejoin="round" stroke="rgb(0%, 74.901961%, 76.862745%)" stroke-opacity="1" stroke-miterlimit="10" d="M 328.007812 138.285156 L 341.832031 138.285156 "/>
<path fill="none" stroke-width="1.066978" stroke-linecap="butt" stroke-linejoin="round" stroke="rgb(0%, 72.156863%, 90.588235%)" stroke-opacity="1" stroke-miterlimit="10" d="M 328.007812 155.5625 L 341.832031 155.5625 "/>
<path fill="none" stroke-width="1.066978" stroke-linecap="butt" stroke-linejoin="round" stroke="rgb(0%, 66.27451%, 100%)" stroke-opacity="1" stroke-miterlimit="10" d="M 328.007812 172.84375 L 341.832031 172.84375 "/>
<path fill="none" stroke-width="1.066978" stroke-linecap="butt" stroke-linejoin="round" stroke="rgb(51.764706%, 58.039216%, 100%)" stroke-opacity="1" stroke-miterlimit="10" d="M 328.007812 190.125 L 341.832031 190.125 "/>
<path fill="none" stroke-width="1.066978" stroke-linecap="butt" stroke-linejoin="round" stroke="rgb(78.039216%, 48.627451%, 100%)" stroke-opacity="1" stroke-miterlimit="10" d="M 328.007812 207.402344 L 341.832031 207.402344 "/>
<path fill="none" stroke-width="1.066978" stroke-linecap="butt" stroke-linejoin="round" stroke="rgb(92.941176%, 40.784314%, 92.941176%)" stroke-opacity="1" stroke-miterlimit="10" d="M 328.007812 224.683594 L 341.832031 224.683594 "/>
<path fill="none" stroke-width="1.066978" stroke-linecap="butt" stroke-linejoin="round" stroke="rgb(100%, 38.039216%, 80%)" stroke-opacity="1" stroke-miterlimit="10" d="M 328.007812 241.964844 L 341.832031 241.964844 "/>
<g fill="rgb(0%, 0%, 0%)" fill-opacity="1">
<use xlink:href="#glyph-0-8" x="349.042969" y="3.319336"/>
<use xlink:href="#glyph-0-9" x="355.042969" y="3.319336"/>
<use xlink:href="#glyph-0-10" x="360.042969" y="3.319336"/>
<use xlink:href="#glyph-0-11" x="362.042969" y="3.319336"/>
<use xlink:href="#glyph-0-12" x="367.042969" y="3.319336"/>
<use xlink:href="#glyph-0-13" x="372.042969" y="3.319336"/>
<use xlink:href="#glyph-0-14" x="375.042969" y="3.319336"/>
<use xlink:href="#glyph-0-12" x="377.042969" y="3.319336"/>
</g>
<g fill="rgb(0%, 0%, 0%)" fill-opacity="1">
<use xlink:href="#glyph-0-15" x="349.042969" y="20.600586"/>
<use xlink:href="#glyph-0-12" x="355.042969" y="20.600586"/>
<use xlink:href="#glyph-0-16" x="360.042969" y="20.600586"/>
<use xlink:href="#glyph-0-17" x="365.042969" y="20.600586"/>
<use xlink:href="#glyph-0-12" x="372.042969" y="20.600586"/>
<use xlink:href="#glyph-0-13" x="377.042969" y="20.600586"/>
<use xlink:href="#glyph-0-18" x="380.042969" y="20.600586"/>
</g>
<g fill="rgb(0%, 0%, 0%)" fill-opacity="1">
<use xlink:href="#glyph-0-19" x="349.042969" y="37.881836"/>
<use xlink:href="#glyph-0-13" x="354.042969" y="37.881836"/>
<use xlink:href="#glyph-0-12" x="357.042969" y="37.881836"/>
<use xlink:href="#glyph-0-16" x="362.042969" y="37.881836"/>
<use xlink:href="#glyph-0-18" x="367.042969" y="37.881836"/>
<use xlink:href="#glyph-0-13" x="371.042969" y="37.881836"/>
<use xlink:href="#glyph-0-14" x="374.042969" y="37.881836"/>
<use xlink:href="#glyph-0-18" x="376.042969" y="37.881836"/>
<use xlink:href="#glyph-0-20" x="380.042969" y="37.881836"/>
</g>
<g fill="rgb(0%, 0%, 0%)" fill-opacity="1">
<use xlink:href="#glyph-0-21" x="349.042969" y="55.15918"/>
<use xlink:href="#glyph-0-20" x="355.042969" y="55.15918"/>
<use xlink:href="#glyph-0-10" x="360.042969" y="55.15918"/>
<use xlink:href="#glyph-0-10" x="362.042969" y="55.15918"/>
<use xlink:href="#glyph-0-12" x="364.042969" y="55.15918"/>
<use xlink:href="#glyph-0-22" x="369.042969" y="55.15918"/>
</g>
<g fill="rgb(0%, 0%, 0%)" fill-opacity="1">
<use xlink:href="#glyph-0-23" x="349.042969" y="72.44043"/>
<use xlink:href="#glyph-0-13" x="351.042969" y="72.44043"/>
<use xlink:href="#glyph-0-10" x="354.042969" y="72.44043"/>
<use xlink:href="#glyph-0-12" x="356.042969" y="72.44043"/>
<use xlink:href="#glyph-0-16" x="361.042969" y="72.44043"/>
<use xlink:href="#glyph-0-24" x="366.042969" y="72.44043"/>
</g>
<g fill="rgb(0%, 0%, 0%)" fill-opacity="1">
<use xlink:href="#glyph-0-23" x="349.042969" y="89.72168"/>
<use xlink:href="#glyph-0-25" x="351.042969" y="89.72168"/>
<use xlink:href="#glyph-0-12" x="353.042969" y="89.72168"/>
<use xlink:href="#glyph-0-10" x="358.042969" y="89.72168"/>
<use xlink:href="#glyph-0-14" x="360.042969" y="89.72168"/>
<use xlink:href="#glyph-0-12" x="362.042969" y="89.72168"/>
</g>
<g fill="rgb(0%, 0%, 0%)" fill-opacity="1">
<use xlink:href="#glyph-0-26" x="349.042969" y="106.999023"/>
<use xlink:href="#glyph-0-13" x="355.042969" y="106.999023"/>
<use xlink:href="#glyph-0-27" x="358.042969" y="106.999023"/>
<use xlink:href="#glyph-0-12" x="363.042969" y="106.999023"/>
<use xlink:href="#glyph-0-25" x="368.042969" y="106.999023"/>
<use xlink:href="#glyph-0-14" x="370.042969" y="106.999023"/>
<use xlink:href="#glyph-0-12" x="372.042969" y="106.999023"/>
</g>
<g fill="rgb(0%, 0%, 0%)" fill-opacity="1">
<use xlink:href="#glyph-0-28" x="349.042969" y="124.280273"/>
<use xlink:href="#glyph-0-14" x="354.042969" y="124.280273"/>
<use xlink:href="#glyph-0-25" x="356.042969" y="124.280273"/>
<use xlink:href="#glyph-0-12" x="358.042969" y="124.280273"/>
<use xlink:href="#glyph-0-9" x="363.042969" y="124.280273"/>
<use xlink:href="#glyph-0-20" x="368.042969" y="124.280273"/>
<use xlink:href="#glyph-0-16" x="373.042969" y="124.280273"/>
</g>
<g fill="rgb(0%, 0%, 0%)" fill-opacity="1">
<use xlink:href="#glyph-0-29" x="349.042969" y="141.561523"/>
<use xlink:href="#glyph-0-12" x="356.042969" y="141.561523"/>
<use xlink:href="#glyph-0-10" x="361.042969" y="141.561523"/>
<use xlink:href="#glyph-0-25" x="363.042969" y="141.561523"/>
<use xlink:href="#glyph-0-12" x="365.042969" y="141.561523"/>
</g>
<g fill="rgb(0%, 0%, 0%)" fill-opacity="1">
<use xlink:href="#glyph-0-30" x="349.042969" y="158.838867"/>
<use xlink:href="#glyph-0-27" x="355.042969" y="158.838867"/>
<use xlink:href="#glyph-0-10" x="360.042969" y="158.838867"/>
<use xlink:href="#glyph-0-20" x="362.042969" y="158.838867"/>
<use xlink:href="#glyph-0-16" x="367.042969" y="158.838867"/>
</g>
<g fill="rgb(0%, 0%, 0%)" fill-opacity="1">
<use xlink:href="#glyph-0-31" x="349.042969" y="176.120117"/>
<use xlink:href="#glyph-0-27" x="355.042969" y="176.120117"/>
<use xlink:href="#glyph-0-17" x="360.042969" y="176.120117"/>
<use xlink:href="#glyph-0-12" x="367.042969" y="176.120117"/>
<use xlink:href="#glyph-0-16" x="372.042969" y="176.120117"/>
<use xlink:href="#glyph-0-14" x="377.042969" y="176.120117"/>
<use xlink:href="#glyph-0-12" x="379.042969" y="176.120117"/>
</g>
<g fill="rgb(0%, 0%, 0%)" fill-opacity="1">
<use xlink:href="#glyph-0-32" x="349.042969" y="193.401367"/>
<use xlink:href="#glyph-0-20" x="355.042969" y="193.401367"/>
<use xlink:href="#glyph-0-13" x="360.042969" y="193.401367"/>
<use xlink:href="#glyph-0-33" x="363.042969" y="193.401367"/>
<use xlink:href="#glyph-0-14" x="368.042969" y="193.401367"/>
<use xlink:href="#glyph-0-12" x="370.042969" y="193.401367"/>
</g>
<g fill="rgb(0%, 0%, 0%)" fill-opacity="1">
<use xlink:href="#glyph-0-32" x="349.042969" y="210.678711"/>
<use xlink:href="#glyph-0-10" x="355.042969" y="210.678711"/>
<use xlink:href="#glyph-0-27" x="357.042969" y="210.678711"/>
<use xlink:href="#glyph-0-34" x="362.042969" y="210.678711"/>
<use xlink:href="#glyph-0-20" x="366.042969" y="210.678711"/>
<use xlink:href="#glyph-0-16" x="371.042969" y="210.678711"/>
<use xlink:href="#glyph-0-14" x="376.042969" y="210.678711"/>
<use xlink:href="#glyph-0-12" x="378.042969" y="210.678711"/>
</g>
<g fill="rgb(0%, 0%, 0%)" fill-opacity="1">
<use xlink:href="#glyph-0-32" x="349.042969" y="227.959961"/>
<use xlink:href="#glyph-0-34" x="355.042969" y="227.959961"/>
<use xlink:href="#glyph-0-20" x="359.042969" y="227.959961"/>
<use xlink:href="#glyph-0-13" x="364.042969" y="227.959961"/>
<use xlink:href="#glyph-0-14" x="367.042969" y="227.959961"/>
<use xlink:href="#glyph-0-11" x="369.042969" y="227.959961"/>
<use xlink:href="#glyph-0-20" x="374.042969" y="227.959961"/>
</g>
<g fill="rgb(0%, 0%, 0%)" fill-opacity="1">
<use xlink:href="#glyph-0-35" x="349.042969" y="245.241211"/>
<use xlink:href="#glyph-0-36" x="354.042969" y="245.241211"/>
<use xlink:href="#glyph-0-20" x="356.042969" y="245.241211"/>
<use xlink:href="#glyph-0-18" x="361.042969" y="245.241211"/>
<use xlink:href="#glyph-0-18" x="365.042969" y="245.241211"/>
<use xlink:href="#glyph-0-14" x="369.042969" y="245.241211"/>
<use xlink:href="#glyph-0-12" x="371.042969" y="245.241211"/>
</g>
<g fill="rgb(0%, 0%, 0%)" fill-opacity="1">
<use xlink:href="#glyph-3-1" x="36.152344" y="14.644531"/>
<use xlink:href="#glyph-3-2" x="46.152344" y="14.644531"/>
<use xlink:href="#glyph-3-3" x="54.152344" y="14.644531"/>
<use xlink:href="#glyph-3-4" x="61.152344" y="14.644531"/>
<use xlink:href="#glyph-3-5" x="68.152344" y="14.644531"/>
<use xlink:href="#glyph-3-4" x="72.152344" y="14.644531"/>
<use xlink:href="#glyph-3-6" x="79.152344" y="14.644531"/>
<use xlink:href="#glyph-3-5" x="83.152344" y="14.644531"/>
<use xlink:href="#glyph-3-4" x="87.152344" y="14.644531"/>
<use xlink:href="#glyph-3-7" x="94.152344" y="14.644531"/>
<use xlink:href="#glyph-3-8" x="101.152344" y="14.644531"/>
<use xlink:href="#glyph-3-9" x="104.152344" y="14.644531"/>
<use xlink:href="#glyph-3-10" x="111.152344" y="14.644531"/>
<use xlink:href="#glyph-3-11" x="118.152344" y="14.644531"/>
<use xlink:href="#glyph-3-12" x="125.152344" y="14.644531"/>
<use xlink:href="#glyph-3-6" x="128.152344" y="14.644531"/>
<use xlink:href="#glyph-3-13" x="132.152344" y="14.644531"/>
<use xlink:href="#glyph-3-12" x="139.152344" y="14.644531"/>
<use xlink:href="#glyph-3-8" x="142.152344" y="14.644531"/>
<use xlink:href="#glyph-3-14" x="145.152344" y="14.644531"/>
<use xlink:href="#glyph-3-15" x="152.152344" y="14.644531"/>
<use xlink:href="#glyph-3-4" x="159.152344" y="14.644531"/>
<use xlink:href="#glyph-3-16" x="166.152344" y="14.644531"/>
</g>
</svg>
